<?xml version="1.0" standalone="no"?> <!DOCTYPE svg PUBLIC "-//W3C//DTD SVG 1.0//EN" "http://www.w3.org/TR/2001/REC-SVG-20010904/DTD/svg10.dtd" > <svg xmlns="http://www.w3.org/2000/svg" width="100%" height="100%">
<defs >
<font horiz-adv-x="488" ><font-face
    font-family="JejuHallasan"
    units-per-em="1000"
    panose-1="2 0 3 0 0 0 0 0 0 0"
    ascent="806"
    descent="-200"
    alphabetic="0" />
<missing-glyph horiz-adv-x="920" d="M860 -150H60V750H860V-150ZM460 271L125 -114H795L460 271ZM100 -83L434 301L100 685V-83ZM459 330L793 714H126L459 330ZM820 686L486 300L820 -84V686Z" />
<glyph unicode=" " glyph-name="null" horiz-adv-x="280" />
<glyph unicode="!" glyph-name="null" horiz-adv-x="443" d="M143 223Q143 230 143 234T141 247Q136 272 141 349Q145 421 136 456Q140 472 141 478T140 479Q135 468 147 507Q145 555 148 599T158 685Q161 705 163 723T167 758L191 767L311 755L330 729L334 668Q318
654 312 639T305 616Q304 608 301 592T291 567L289 558Q299 537 303 534T309 529Q311 531 308 526T297 506Q282 479 292 482Q297 479 270 376Q263 351 259 336T253 312T249 299T248 292Q230 285 217 280T204 268Q204 265 211 261T226 253Q231 251 236 249T248 244L230
222L143 223ZM263 134Q259 131 264 128T265 125L263 63L254 28Q250 26 247 25Q243 23 239 21T228 17Q203 4 199 4L162 21Q125 38 122 41Q129 62 131 95Q131 103 131 109T132 119Q132 124 133 127Q137 128 152 130T171 136Q171 134 177 139L183 143Q185 143 191
142T212 139Q226 137 232 136T240 134Q246 134 248 134T252 135T255 135T263 134Z" />
<glyph unicode="&quot;" glyph-name="null" horiz-adv-x="446" d="M277 781Q281 780 289 779T307 777T326 775T340 771Q367 759 386 762L399 737Q397 730 396 723T393 708Q391 700 390 695T388 684Q387 681 387 675L369 662V608L350 550H307Q294 550 289 551Q261
554 261 559Q261 562 261 571T264 588Q266 594 260 606T256 625Q257 628 257 636T257 647Q250 648 250 692Q251 715 250 728T246 750Q260 758 260 772L277 781ZM100 778Q103 777 111 776T129 774T148 772T163 768Q188 756 209 759L221 734Q219 727 218 720T215
705Q213 697 212 692T210 681Q209 678 209 672L191 659V605L172 547H129Q116 547 111 548Q83 551 83 556Q83 559 83 568T86 585Q87 588 86 593T82 603T79 614T79 622V644Q72 645 72 689Q73 712 72 725T68 747Q82 755 82 769L100 778Z" />
<glyph unicode="#" glyph-name="null" horiz-adv-x="666" d="M609 255Q604 255 599 255T587 257Q568 260 551 263T517 269Q521 254 518 238T515 216Q515 213 515 212T517 209T519 201T523 183Q525 172 512 145Q501 119 501 113Q500 110 499 104T497 90Q482 93
478 95T466 99L415 85L394 99Q395 115 403 139Q410 185 412 205Q414 208 413 216T409 229L410 261Q402 260 394 259T375 261Q372 261 363 261T335 262Q318 264 308 264T296 264Q294 270 295 273T297 279Q292 280 282 274T267 268H269Q271 257 268 240T265 215Q265
212 265 211T267 208T269 200T272 183Q274 175 263 145Q251 116 251 113Q251 110 249 104T246 90Q232 93 223 95T206 99L187 92L146 104Q147 112 148 120T151 138Q157 161 159 177T163 204Q163 207 162 215T159 229L161 254Q152 254 140 254T115 253T93 252T78
251H70Q65 251 62 252Q59 254 60 254T56 256Q54 256 49 257T36 259L24 283Q27 287 28 291Q31 295 36 301T47 319L58 316Q58 310 94 318Q112 322 129 323T162 326Q163 331 166 335T172 342Q178 356 183 391T193 466Q176 465 161 465T134 463Q133 463 127 457L122
452Q114 454 114 455T112 458Q109 459 100 460T77 462L72 476Q77 483 81 488T87 500Q88 502 89 506T95 515L128 530Q141 527 160 527T199 529Q202 547 203 556T206 570T207 577T207 581Q218 589 225 594T234 606Q237 619 234 625T225 634T215 636T210 638Q210 648
213 661T216 677L245 697Q254 695 260 695T268 695Q271 695 272 693T274 687T279 682T291 679Q295 679 297 682T305 686Q307 686 316 686T343 684H350L373 651Q370 644 365 637T355 621Q323 572 315 519Q326 518 341 518T379 517H450Q454 555 456 585T458 621Q458
622 458 633T459 648Q459 658 460 665T463 677L490 698Q512 695 519 695Q523 694 519 685Q513 677 528 679Q532 679 541 678T554 677Q558 677 564 674T576 667Q576 663 575 649T573 615T569 571T565 520Q582 522 603 523T649 524Q662 525 671 525T689 525L703 501Q703
497 703 494T704 487Q716 485 716 476T712 459L702 465Q705 467 646 462Q617 460 597 459T565 457Q562 417 558 393T553 367Q553 364 548 350T537 328Q535 326 543 319Q603 322 626 322L633 295Q631 287 630 284Q636 280 635 270L609 255ZM423 343Q428 360 432
393T443 466Q432 464 421 461T394 462Q392 463 387 464T379 466Q377 466 370 466T351 467Q339 468 329 468T312 468Q310 426 307 397T302 365Q302 362 298 349T288 328Q287 327 286 323Q285 322 285 320H278Q283 319 297 318T335 316Q382 313 412 316V318Q416 319
417 322T419 330T419 337T423 343Z" />
<glyph unicode="$" glyph-name="null" horiz-adv-x="572" d="M458 402Q468 385 478 367T501 329Q507 319 511 313T519 301L525 292L494 184L467 157L416 81H342L355 28L356 -30H287L277 1L269 45V81Q239 83 213 74T173 65L136 75L56 85L71 138L217 160L269 166V257Q269
257 271 259L275 261Q276 262 280 264Q288 272 275 272Q280 291 281 303T282 325L225 335L197 319L111 360L79 442L109 557L163 643Q170 643 173 644Q178 644 184 644T201 646Q240 649 276 676H274Q272 681 273 696T270 737Q259 752 258 764T255 795Q260 797 273
794T306 786Q326 781 338 778T357 773V765Q357 761 357 756T356 742Q355 734 355 727T355 714V694Q363 696 373 699T395 705Q401 707 405 708T413 710Q415 711 416 711T420 712L476 717L479 673L410 653L359 631L355 630V561Q355 555 355 548T356 533Q356 527 356
517T358 493T360 467T365 442Q352 440 352 437T351 435H335Q343 428 354 420T381 399Q414 379 458 402ZM285 432Q286 489 285 522T286 570Q285 572 285 578T282 593L277 591L233 544L200 489L242 429L285 432ZM342 173L403 235L388 281L329 316V294Q329 286 329
282T330 274V268L324 228L331 172L342 173Z" />
<glyph unicode="%" glyph-name="null" horiz-adv-x="747" d="M145 720Q151 717 166 716T196 714H212Q221 714 227 714T238 716Q241 717 247 717L330 639L338 465L283 394Q261 418 229 410Q221 407 216 406T206 402Q200 400 199 400L53 427L12 552L53 619L90 655Q120
685 127 718L145 720ZM659 22Q639 30 618 24L588 18L433 43L391 168L434 236L469 271Q495 296 505 323L540 330Q543 329 550 329H562Q583 331 590 332Q593 333 600 333L699 254L737 82L713 42L659 22ZM62 46Q65 50 69 55T78 66Q90 82 103 93T117 106Q128 128 141
144T162 167Q165 170 168 172T175 177T188 186T209 203L366 417Q368 421 371 424Q374 427 378 432T388 444Q393 451 407 466T438 503T474 549T507 600Q532 615 546 628T571 654T592 680T621 710L641 712L701 696L698 661Q688 653 674 636T649 611Q613 588 607 565H601Q596
563 593 560Q591 558 590 554T594 546L433 378L289 181Q287 178 283 179T274 180T261 172T244 145Q244 143 242 134T240 117V112Q227 101 219 98T205 92T192 88T176 76Q169 70 161 60T144 35Q125 5 121 2H107Q97 2 82 7L72 13Q66 17 63 18L62 46ZM151 480Q155 479
159 479T168 478Q175 477 183 476T197 473Q196 483 194 493T187 515Q194 531 200 548T211 580T216 608T212 629Q170 628 142 606T105 549L115 494L151 480ZM528 95L550 93Q559 92 569 91T587 88Q586 99 583 109T576 130Q592 161 580 197Q576 214 571 226T561 246L484
165L493 109L528 95Z" />
<glyph unicode="&amp;" glyph-name="null" horiz-adv-x="775" d="M375 501L422 522L468 509L458 489L376 448Q388 426 391 418T398 399Q409 381 413 370T418 356L462 331L511 178Q515 181 524 187T545 203Q573 222 574 221Q575 219 595 278Q616 333 620 332Q621
332 622 338T611 347Q595 350 581 346T561 349Q557 352 558 359T563 374T571 388T579 397Q589 407 638 392Q687 382 696 383Q703 387 717 369Q724 362 725 354T729 344Q731 342 732 343T727 337Q722 329 720 325T715 317Q717 298 705 277T671 241Q630 215 632 207Q633
196 626 188T603 172Q570 155 574 153Q582 149 581 118Q579 90 658 80Q660 79 715 82Q724 83 732 83T746 84L764 62L746 18H562Q551 34 533 29Q524 26 515 29T495 41Q506 58 494 64Q494 68 487 66T472 64L410 20L268 -1L136 39L44 184L64 274L179 369L229 443L198
472Q200 475 199 478T194 485Q192 489 190 491T179 501L157 623L251 720L367 755L503 736L531 676L535 630L497 548L480 534L446 551L473 619L421 686L341 687Q337 685 334 684Q330 682 325 679T314 672Q285 655 295 646V575Q300 567 298 562T299 551L315 545L331
532Q336 524 340 516T348 500L375 501ZM272 86L362 77Q384 84 394 90T406 103T403 116T388 130L362 215L309 312L292 349Q284 370 273 371T247 362L214 334L188 249L225 136L272 86Z" />
<glyph unicode="&apos;" glyph-name="null" horiz-adv-x="280" d="M105 788Q108 787 117 786T136 784T156 782T171 778Q198 766 219 769L232 744Q230 737 229 730T226 715Q224 707 223 702T221 691Q220 688 220 682L201 669V615L181 557H136Q131 557 126 557T117
558Q88 561 88 566Q88 569 88 578T91 595Q92 598 90 603T86 613T83 624T83 632Q84 635 84 643T84 654Q76 656 76 699Q77 722 76 735T72 757Q81 762 84 767T87 779L105 788Z" />
<glyph unicode="(" glyph-name="null" horiz-adv-x="400" d="M246 -47Q245 -17 217 23Q200 49 187 70T165 108Q173 107 174 113T167 122L131 293L148 492Q149 497 151 510T155 537L152 538Q154 554 161 569T178 602Q200 635 204 657Q206 665 216 684T250 734Q259
747 266 756T278 773L303 792Q307 791 315 790T333 788T352 785T366 781Q368 771 346 736Q322 699 324 694Q322 688 321 684Q319 679 317 672T312 655Q307 636 305 625T301 610L284 583Q268 558 266 527L253 300Q254 293 262 235Q266 206 275 180T297 130L286 116L302
56Q301 43 323 7Q335 -13 340 -25L318 -62L262 -61L246 -47Z" />
<glyph unicode=")" glyph-name="null" horiz-adv-x="400" d="M166 -61L110 -62L88 -25Q93 -13 105 7Q127 43 126 56L142 116L131 130Q144 154 153 180T166 235Q174 293 175 300L162 527Q160 558 144 583L127 610Q126 614 124 625T116 655Q112 664 111 671T107
684Q106 688 104 694Q106 699 82 736Q60 771 62 781Q66 783 75 784T94 787T112 790T125 792L150 773Q155 766 162 757T178 734Q201 703 211 684T224 657Q228 635 250 602Q260 585 267 570T276 538L273 537Q275 524 277 511T280 492L297 293L261 122Q253 120 254
114T263 108Q255 91 242 70T211 23Q183 -17 182 -47L166 -61Z" />
<glyph unicode="*" glyph-name="null" horiz-adv-x="336" d="M272 589L312 556L280 512L224 532L205 510L198 472L151 449L125 520L116 533H26V572L89 610L42 645L31 698H72L125 686L128 716Q131 719 135 729Q137 736 137 746T135 772L194 787L207 756L208 741L218
698H220L282 715L306 663L286 649Q278 643 270 635T255 617L246 611L272 589Z" />
<glyph unicode="+" glyph-name="null" horiz-adv-x="511" d="M300 118H282Q279 118 271 116T253 111T235 105T224 99L200 97L196 112Q189 139 189 161T187 209Q187 210 186 214T185 227L193 282Q182 281 164 280T120 277Q70 272 69 274Q64 276 65 283T63 293Q62
295 58 293T42 290Q20 289 18 291Q16 293 16 301T18 318T21 336T23 347Q23 348 39 354T91 361Q158 364 158 366Q158 370 177 373Q190 377 194 383T198 396T197 410T198 422Q199 439 199 457T197 497Q196 509 196 519T197 537L220 555Q239 554 263 562T304 572L328
552Q329 541 329 534T328 523Q327 513 329 509Q337 502 332 484T318 442Q310 424 308 421T302 415Q279 411 278 398T288 376Q295 373 301 374T312 379T321 385T327 388L413 391L469 374L488 317Q488 310 488 303T486 288H345Q331 288 324 289T311 291Q314 280 314
279V240Q314 205 315 182T319 145L300 118Z" />
<glyph unicode="," glyph-name="null" horiz-adv-x="301" d="M191 148L212 42Q210 32 208 21T202 -3Q200 -17 195 -26T186 -41L164 -60L129 -95L71 -86Q90 -76 98 -65Q102 -61 109 -50T131 -21Q137 -12 132 8Q128 27 126 27H117Q113 27 108 27T95 26Q69 24 56
32V56Q56 60 56 65T57 75Q58 97 58 111T56 134Q61 134 67 138T81 147T99 156T125 162Q139 164 151 162T173 157Q183 152 191 148Z" />
<glyph unicode="-" glyph-name="null" horiz-adv-x="499" d="M469 327L473 268Q472 267 470 267Q468 267 466 267T461 266Q449 264 450 271H424Q383 273 273 268Q216 266 183 263T138 253Q133 251 131 251T128 250T127 249T128 243H80L50 257Q48 271 46 289T41
325L50 344Q63 346 70 346T82 345T89 343T93 342Q94 342 110 344T158 349Q190 353 229 354T315 356H451L469 327Z" />
<glyph unicode="." glyph-name="null" horiz-adv-x="283" d="M168 170Q166 168 166 167T168 163L171 161V160L168 84L159 49Q158 48 154 46L142 34Q134 29 129 26T123 22Q121 24 70 40Q43 50 30 54T14 61Q19 74 21 89T25 124Q25 133 25 140T27 153Q28 157 28 163Q31
165 53 166Q77 168 80 171Q80 170 92 175L104 179Q106 179 112 178T124 175T136 172T144 170Q151 170 153 170T156 171T160 171T168 170Z" />
<glyph unicode="/" glyph-name="null" horiz-adv-x="435" d="M412 760Q416 758 424 756T441 752T457 748T467 743Q465 737 462 727T452 701Q446 686 444 678T440 668Q436 645 429 628T418 604Q416 601 414 599T410 592T402 581T389 560L276 273Q275 271 275 269T273
265Q271 261 269 256T264 243Q261 236 255 223T241 191T226 150T213 102L190 59Q188 67 184 73Q161 67 151 56T139 32T141 8T153 -7Q157 -9 155 -12T149 -19T139 -30T131 -46L106 -53L9 -32L10 -10Q23 12 40 32Q62 62 60 107Q61 106 67 113T80 130T92 146T98 153L161
296L266 568Q268 574 276 585T291 605L286 608Q302 634 310 649T329 682Q333 689 337 699T345 726Q347 736 350 743T355 756L412 760Z" />
<glyph unicode="0" glyph-name="null" horiz-adv-x="629" d="M574 511Q575 500 576 485T580 455T584 429T590 413Q596 403 602 392T615 367Q610 362 602 344T590 312Q587 298 585 291T582 282Q580 280 578 278T573 271Q568 265 563 255T550 228Q534 196 522 176T501
144Q496 139 490 131T481 97Q464 93 446 90T408 84Q389 82 379 81T367 80Q341 80 318 77T275 70T243 63T223 60L114 93L53 165Q59 225 60 269T65 345Q84 359 105 414Q127 466 133 496Q138 500 145 508T160 522L401 602Q401 577 427 582Q434 584 439 584T448 586Q451
587 454 587Q467 571 479 567T501 563T518 565T530 562Q543 542 574 511ZM446 340Q448 369 448 397T452 443Q421 488 402 507T378 527Q367 527 321 499Q277 470 273 465Q260 444 251 426T233 393Q216 364 212 301Q214 293 218 282T220 246Q218 234 219 226T223
211T226 199T227 188Q232 186 236 181T244 170T255 158T273 147Q294 136 301 126T313 116Q322 116 326 119T333 126T336 133T339 136Q343 136 350 130T364 122L422 161Q430 166 435 186T441 245Q443 283 444 303T446 340Z" />
<glyph unicode="1" glyph-name="null" horiz-adv-x="446" d="M197 622Q211 624 228 626T258 630L278 632Q291 606 291 607Q292 609 302 606T321 583L342 540Q341 536 341 532T338 522Q336 513 333 500T327 468Q325 456 327 442T326 411Q324 402 320 389T310 363T301
337T295 317Q292 298 295 282T297 254Q295 240 288 231T280 220Q280 213 284 209T287 199Q279 154 276 125T272 72L251 44Q240 44 225 45T198 49Q180 55 160 53L144 65Q146 88 142 94Q138 102 138 129Q138 139 140 172T145 249T152 344T159 438T166 514T170 555Q171
560 171 567T172 586L197 622Z" />
<glyph unicode="2" glyph-name="null" horiz-adv-x="558" d="M449 327Q434 323 419 315T389 298Q387 296 387 293V288Q387 286 386 283T379 276Q380 274 377 273T370 268T361 261T357 247Q341 245 332 237T310 219Q296 219 291 207T278 176Q280 161 270 137Q263
115 263 108Q263 100 267 100H272Q279 100 298 104T339 116T384 130T419 144Q433 151 443 153T462 157T477 158T492 160L522 132Q516 121 516 110T517 93Q513 87 503 84T476 75Q473 73 462 71T431 61Q391 48 382 49Q374 44 349 44T284 37Q263 33 243 30T207 22Q198
20 189 18T172 14Q161 9 155 11T145 15Q143 15 136 12T117 3L113 -1L81 29Q83 32 83 34T85 38Q86 49 82 52T87 60Q98 86 103 107T109 147Q109 154 113 161T124 177T135 194T142 212L176 254Q181 256 186 257T197 261Q205 264 207 266T209 271T208 276T209 281Q219
288 228 291T245 291Q262 287 273 299Q278 303 284 306T294 315Q295 317 299 324T309 346Q315 360 319 368T323 378Q323 381 320 384L318 386L327 467Q325 469 323 471T319 475Q314 479 309 485T297 500Q271 533 262 533Q261 533 250 533T216 531Q193 530 177 529T153
525L90 486L58 488Q58 493 60 503T65 524T70 545T73 561Q79 563 86 566T98 570Q119 570 125 580Q129 593 137 593Q139 593 158 594T218 600Q237 602 255 604T287 608T310 611T322 613Q326 609 334 605T353 596T372 587T389 576Q396 570 402 565T415 554T432 546T458
540L492 482Q500 461 484 445Q470 430 481 415Q479 405 476 388T469 355L449 327Z" />
<glyph unicode="3" glyph-name="null" horiz-adv-x="576" d="M131 370Q140 372 152 375T179 384Q221 399 230 408Q247 422 256 422Q264 424 277 435Q281 437 292 440T307 452Q309 454 310 472Q314 489 314 497Q314 502 318 519Q321 542 322 543L309 574Q307 578
298 588T284 598Q283 598 266 618Q253 640 234 634L185 639L116 630L100 646Q105 656 115 664T141 690Q167 690 194 691T230 692Q235 692 249 694T283 697T322 699T360 695Q377 690 389 683T414 668T441 650T474 631L471 558Q461 547 464 539T478 518Q476 510 475
505T472 494T470 483T469 467Q449 465 434 452T404 428Q399 424 392 418T382 409Q381 409 379 409T375 408T370 399T368 378Q358 376 353 373T345 366T339 358T330 351Q320 351 304 344T277 316L159 311Q157 311 154 312T147 318T137 332T125 357L131 370ZM68 56Q76
64 82 69T96 79Q103 83 110 86Q115 83 122 80T138 75T153 70T163 66Q176 51 193 59Q208 66 214 66Q223 66 247 84Q262 94 271 99T285 107L328 146Q332 148 335 150T343 154Q349 157 354 160T362 165Q361 219 352 246T342 277Q341 284 325 283Q310 281 308 286Q305
294 309 298Q314 304 297 312L328 337L408 336Q420 328 436 324Q453 319 446 308Q453 307 463 313T477 315Q496 301 495 297Q494 293 511 279Q520 256 507 234Q504 229 504 220T504 201T508 182T512 167Q502 159 500 149T494 136Q487 131 487 124T488 104L400 42Q373
39 346 35T290 25Q237 16 212 16Q208 16 181 13Q174 12 170 12T162 12Q157 12 155 11Q128 17 105 24T69 36L68 56Z" />
<glyph unicode="4" glyph-name="null" horiz-adv-x="594" d="M559 209Q540 209 514 209T462 206Q459 192 457 181T454 166V149Q450 149 448 102V68L429 49Q414 43 401 37T370 22Q368 20 366 20H349Q346 20 347 21T345 23Q343 23 341 21T333 17L316 31Q314 37 314
40V46Q314 52 318 61T325 76Q326 88 326 106T333 136Q332 150 332 164T335 194Q297 189 264 187T226 185Q224 185 217 186T199 190Q188 192 185 188T179 183Q178 183 171 182T150 178Q121 173 120 172Q119 172 114 174T106 177Q104 177 100 177T90 176H77Q72 176
64 180T56 193Q56 197 54 200T53 206Q55 213 58 226T58 251Q65 266 76 290T100 337L121 375Q129 389 134 405Q136 409 143 417T155 434Q157 440 158 443T164 455Q165 456 168 457T172 463Q172 464 175 473T183 492T190 512T195 523Q200 530 208 544T224 580Q229
591 232 599T238 612Q242 620 243 623Q244 624 244 629T246 635Q249 638 255 640T272 646Q284 635 330 628Q375 622 377 622L393 594L366 532Q358 532 355 532T348 531Q346 526 340 511T325 478T311 447T302 430V419Q292 414 288 413T279 403Q270 389 264 379T250
361Q245 353 239 340T225 308Q225 304 220 294T215 280Q216 276 224 269T234 256Q235 254 258 256Q269 257 276 257T285 258Q290 252 305 252T346 253Q351 281 358 317T370 379Q381 381 387 385T404 395L424 392Q429 386 444 384Q449 383 453 383T460 382Q463 381
466 381L498 376Q499 372 499 369T500 361Q501 355 501 350T497 341Q491 334 487 324T480 301T475 278T469 257Q477 258 487 258T509 258H550L559 228V209Z" />
<glyph unicode="5" glyph-name="null" horiz-adv-x="472" d="M224 424Q235 422 248 421T279 416Q301 413 313 411T327 409Q328 408 329 407T332 404Q334 401 338 398T348 391Q354 386 358 386T365 389T369 394T372 397Q389 385 401 377T420 368Q420 365 420 362T421
354Q422 347 423 337T426 313Q429 287 434 261T449 208Q441 198 436 187T427 164L419 140H408L342 82L329 85Q328 85 324 82T319 78Q312 73 302 68T280 58T260 50T247 47Q244 47 233 46T207 42T174 39T137 37Q65 37 63 42L54 82L69 98H100Q102 98 105 102T117 108Q139
86 176 116Q186 123 197 128T219 138T237 144T245 148Q247 150 250 152T256 156Q261 166 265 169T269 179L291 224Q286 243 279 290Q272 336 268 336L186 361L169 355Q158 352 157 352H142Q135 352 130 353Q116 354 107 354T91 355L66 352L53 374Q55 388 58 399T62
418Q62 420 60 425T58 434Q58 437 60 439T63 443Q64 450 65 459T67 476T68 489T69 497Q69 499 71 499H59Q66 514 66 519T67 532Q76 533 81 535T90 539Q94 542 94 544Q92 551 91 556Q85 566 77 571Q81 581 83 587T86 598T86 610T81 629Q79 640 90 644T109 649H146Q168
649 189 649T226 650H243L254 649Q258 649 265 651T280 653Q281 653 287 651T298 648T307 648T306 657Q317 660 318 660T322 658Q325 654 343 654Q348 654 347 654T354 655L362 643L365 619L346 597L317 596L308 593Q299 590 284 587Q252 578 242 581L240 578Q238
575 235 571T229 566Q219 540 217 523T214 493T215 469T213 445L224 424Z" />
<glyph unicode="6" glyph-name="null" horiz-adv-x="578" d="M548 305Q546 299 545 291T543 272T546 252T556 232Q554 230 552 227T548 220Q543 214 537 205T523 182Q491 132 489 132L453 114L436 111Q421 108 415 108L413 106Q413 105 412 104Q389 92 311 74L202
57L100 137Q98 142 96 147T92 158Q88 169 85 184T78 221Q72 263 70 286T67 314L79 408L87 444L102 567L170 642L278 713L367 730H386L431 695L342 657L294 626L220 532L237 475L238 421Q248 413 264 409T305 423Q315 430 319 436T324 447T327 455T333 459L381 456L467
431Q470 420 475 414T487 403T501 393T516 377Q523 368 527 357T535 336T541 317T548 305ZM304 148Q307 148 315 150Q320 152 328 154T347 159Q390 170 406 207Q413 224 413 233T406 260Q390 293 386 320L367 338Q361 340 358 342Q353 344 347 346T330 354Q295
368 287 366Q283 365 275 359T262 349Q255 342 250 337T240 327L228 312Q226 308 224 305T221 300L205 295Q207 290 210 284T215 271L221 257L215 209L250 141Q256 135 269 133Q272 132 280 132L304 148Z" />
<glyph unicode="7" glyph-name="null" horiz-adv-x="503" d="M442 459Q437 447 430 429T414 388Q405 363 397 332T382 271T371 221T367 197Q367 192 370 187T373 175Q371 166 369 163T366 157T363 152T362 141Q362 138 358 137T340 132Q333 131 331 126T329 114T330
102T332 95Q332 93 333 87T348 81Q362 82 363 76T365 67Q365 58 365 45T366 17L338 -12Q327 -13 311 -14T276 -15T242 -17T214 -20L191 5Q194 18 192 22Q191 27 191 34T190 51Q190 68 193 98T203 174Q207 195 211 225T220 284Q222 301 224 318T228 352Q232 355
237 361Q240 366 243 374T247 396Q248 412 253 421T263 434T273 442T279 449Q285 463 284 476T276 496T259 504T236 493H199Q168 492 144 488T101 478T68 468T44 459L18 465L6 503L15 535Q28 539 39 542T58 548Q69 551 83 553T126 562L209 577Q235 569 276 565Q287
564 300 564T326 563H363L389 566L400 547L422 536L445 494L442 459Z" />
<glyph unicode="8" glyph-name="null" horiz-adv-x="578" d="M542 285Q541 280 541 262T540 212Q540 181 538 166T543 139Q539 133 535 129Q530 124 523 117T502 101Q452 63 447 63L414 67Q411 66 398 65T382 63Q376 60 369 52T352 34T332 16T308 7Q294 5 284
5T267 3Q263 2 260 2T253 2L66 63Q66 70 65 75Q64 81 64 90T61 114Q60 127 59 133T58 142T56 150T53 163Q53 166 58 171T71 177Q74 177 74 180T74 188T72 197T70 202Q69 207 61 211T51 221Q49 238 49 240T50 247L97 357Q110 359 127 359T157 361T173 372T162 400L113
425L105 468Q103 470 102 473Q100 476 98 480T93 490Q81 511 80 533Q78 569 97 600L115 636L177 689L383 699L454 660L509 628L507 492L481 464L394 404Q381 377 393 370T426 363T470 362T500 350Q516 326 526 310T542 285ZM349 440L376 496L363 621L308 655L215
631L178 574L208 489L306 430L349 440ZM335 92L403 139Q404 160 403 186T389 247Q376 282 359 305T339 344L327 357Q317 352 308 345T292 335Q290 333 283 335T261 340Q247 343 246 344T242 344Q241 337 220 325Q210 320 205 317T199 312Q197 310 198 307T201 300T202
289T197 273Q192 264 190 258T187 246Q185 241 187 238L177 221L197 140L248 104Q250 103 252 102T258 100Q263 98 271 96T291 89Q335 74 335 92Z" />
<glyph unicode="9" glyph-name="null" horiz-adv-x="555" d="M498 522Q498 512 510 392Q514 332 519 302L522 272L502 185L466 79L404 20L297 -47L184 -60H166L146 -27L217 -3L313 37L349 88L363 160V240Q348 233 329 227T286 210Q262 202 248 197T227 188L182
178L97 211Q91 232 83 253T65 292T46 325T30 349Q32 354 40 373T64 427Q80 461 88 478Q90 483 92 487T96 495Q105 499 116 504T136 516T152 528T158 541Q171 549 202 557T285 575L387 595L498 522ZM356 386L368 438L335 516Q329 516 322 516T308 515T297 513T292
507Q289 506 283 502Q277 499 258 487Q223 466 207 436Q190 404 189 363Q189 342 189 330T190 313Q193 309 199 294T208 263L260 252Q263 253 271 256T291 264Q303 269 310 271T321 275Q331 285 342 300Q359 317 359 321Q359 325 360 328Q361 332 361 337T364 350Q370
377 356 386Z" />
<glyph unicode=":" glyph-name="null" horiz-adv-x="295" d="M232 628Q230 626 230 624T232 620T235 617T235 616L232 550L220 506Q220 506 214 502Q208 497 199 490Q188 482 183 479T176 475Q175 475 162 479T124 495Q98 506 86 513T70 523Q77 536 79 551T83
584Q83 592 83 598T84 610Q84 616 85 618Q87 619 94 620T110 622T126 625T136 629Q136 628 144 634L152 640Q155 640 160 638T177 633Q188 631 194 630T202 628Q210 628 214 628T217 630Q215 632 232 628ZM232 198Q228 194 232 190T235 186L232 120L220 76Q217
73 214 72Q211 70 208 68T199 60Q176 45 174 45Q173 45 124 66Q98 77 86 84T70 93Q77 108 79 123T83 155Q83 163 83 169T84 180Q84 185 85 188Q87 189 94 190T110 193T126 196T136 200L144 204Q146 205 148 206T152 209Q154 209 160 208T177 205Q187 202 193 201T202
200Q210 199 214 199T217 200Q215 202 232 198Z" />
<glyph unicode=";" glyph-name="null" horiz-adv-x="298" d="M230 198L253 86Q247 65 240 31Q233 -2 224 -11Q223 -13 213 -18T192 -35L152 -74L105 -65Q116 -57 123 -52T133 -41Q135 -36 144 -23T168 12Q175 22 169 45Q160 68 159 68Q156 67 152 67Q149 67 144
67T133 66Q109 65 92 74Q90 78 88 81T84 90Q81 98 79 108T77 131Q78 155 86 166T92 185Q105 187 123 199T168 215Q180 217 191 215T211 208Q222 203 230 198ZM232 628Q230 626 230 624T232 620T235 617T235 616L232 550L220 506Q220 506 214 502Q208 497 199 490Q188
482 183 479T176 475Q175 475 162 479T124 495Q98 506 86 513T70 523Q77 536 79 551T83 584Q83 592 83 598T84 610Q84 616 85 618Q87 619 94 620T110 622T126 625T136 629Q136 628 144 634L152 640Q155 640 160 638T177 633Q188 631 194 630T202 628Q210 628 214
628T217 630Q215 632 232 628Z" />
<glyph unicode="&lt;" glyph-name="null" horiz-adv-x="428" d="M359 738L418 710Q416 706 415 703L410 694Q408 689 404 682Q396 669 391 659T380 640L362 608Q356 597 349 583T331 551Q312 515 297 490T269 449Q269 445 269 441T271 440Q268 426 263 410T247
375Q239 355 233 342T222 319L239 290L246 269Q250 258 255 243T269 206Q301 122 333 102L406 -4L321 -61L270 -14L237 16L163 155L112 269L83 278L111 371Q146 391 155 434Q167 481 176 490Q182 494 210 564Q217 581 222 594T231 617Q233 622 234 626T238 635Q241
637 246 642Q250 645 254 650T266 661Q296 686 311 709L359 738Z" />
<glyph unicode="=" glyph-name="null" horiz-adv-x="493" d="M468 232L472 173Q471 172 469 172Q467 172 465 172T460 171Q448 169 449 176H423Q382 178 272 173Q215 171 182 168T137 158Q132 156 130 156T127 155T126 154T127 148H79L49 162Q47 176 45 194T40
230L49 249Q62 251 69 251T81 250T88 248T92 247Q93 247 109 249T157 254Q189 258 228 259T314 261H450L468 232ZM460 508L464 449Q463 448 461 448Q459 448 457 448T452 447Q440 445 441 452H415Q374 454 264 449Q207 447 174 444T129 434Q124 432 122 432T119
431T118 430T119 424H71L41 438Q39 452 37 470T32 506L41 525Q54 527 61 527T73 526T80 524T84 523Q85 523 101 525T149 530Q181 534 220 535T306 537H442L460 508Z" />
<glyph unicode="&gt;" glyph-name="null" horiz-adv-x="400" d="M370 391L398 297L368 289L316 175L243 36L209 6L158 -41L75 16L147 122Q180 143 210 226Q218 247 223 262T232 289L239 310L258 339Q254 349 247 363T232 396Q223 416 218 432T209 461Q209 462
211 464T213 467Q202 481 187 506T151 569Q110 644 99 660Q94 668 89 678T76 702Q72 709 70 714T66 723Q65 726 63 730L122 758L169 729Q185 706 211 681Q219 675 224 670T234 662Q239 657 242 655Q244 651 245 647T249 637Q253 628 257 615T270 584Q277 566 278
553T278 530T274 515T273 509Q276 506 283 502T298 490T314 474T325 454Q335 410 370 391Z" />
<glyph unicode="?" glyph-name="null" horiz-adv-x="563" d="M193 268L215 406Q216 409 220 415Q222 419 226 424T237 434Q261 450 261 477Q282 495 293 514T310 550T316 581T319 603L300 642Q283 656 265 661T247 667Q239 666 234 665T224 671Q220 679 213 677T198
675Q185 675 174 674T159 672Q154 672 151 671Q147 670 142 669T129 667Q110 662 97 660L83 665L77 707L84 724Q89 727 96 730T112 737Q118 738 127 739T147 740Q172 740 172 763Q186 763 208 767T255 774T302 778T342 773Q348 767 358 761T378 751T398 743T413
740L440 722Q438 705 441 699T449 691T462 689T476 684L488 619L470 497L361 401L337 390L311 330L291 293L273 263L209 248L193 268ZM259 163Q272 161 274 163Q283 172 288 167T297 153T301 137T303 132L311 90L300 55L291 52Q280 47 273 40Q263 33 254 29T243
25Q242 25 232 30T202 43Q162 62 157 69Q161 81 163 94T167 122Q168 129 168 134T169 144Q169 149 170 151Q177 154 188 158T214 173L259 163Z" />
<glyph unicode="@" glyph-name="null" horiz-adv-x="773" d="M677 115Q652 96 614 80T523 51Q491 43 467 38T427 28Q418 26 410 25T395 21Q390 22 385 22T373 25Q362 27 346 29T310 37Q226 54 172 96Q127 131 92 194Q83 209 77 222T66 245Q64 250 62 255T58 266Q57
282 57 306T60 363Q63 427 69 448Q74 464 78 475T86 493Q88 498 93 510T107 543Q111 554 140 575T226 624Q281 653 312 672T352 705Q383 706 402 706T441 705H470Q470 702 528 680Q542 674 553 670T572 662Q577 660 580 659T586 657L744 500Q739 483 737 459T734
411T730 363T724 323Q692 272 612 231Q570 210 544 192T515 168Q513 169 511 170T507 173Q499 177 483 188Q452 207 431 212Q411 216 409 207Q408 196 386 197Q384 198 381 198T374 199Q368 200 359 201T339 204Q295 210 274 205L207 299Q207 339 252 422Q298 503
289 521Q306 526 336 529T399 524Q465 512 472 522Q476 524 481 531T493 541Q519 527 549 534Q581 543 582 518Q582 508 541 415Q521 367 511 334T499 279Q506 275 517 271T545 262Q577 250 577 272Q594 280 624 322Q638 342 647 355T658 372Q660 391 658 413T647
461Q639 487 635 502T629 522L507 604Q490 610 476 619T444 626Q425 625 407 620T364 606Q334 590 305 578T250 549T200 506T160 434Q155 386 153 338T173 239Q176 237 183 228L198 208Q207 196 220 182T252 154Q290 127 322 116T379 95Q384 98 400 97T448 106Q480
116 513 126T581 148Q592 153 606 171T638 200Q643 203 646 205T654 210L680 197L691 156L677 115ZM437 308Q437 315 437 323T438 343L442 392Q443 406 444 415T445 430V453Q443 457 440 462T435 467Q433 467 425 464T401 454Q393 450 388 450T378 452T370 456T365
458Q363 457 360 457T355 455Q354 450 353 444T349 436Q347 434 347 428V415Q347 409 347 404T343 399Q342 399 337 398T328 397Q330 395 330 392Q332 387 328 381T320 368Q314 361 319 309Q320 286 312 274T303 262Q304 262 309 261Q316 260 319 261H325Q330 260
341 260Q350 260 379 263Q408 266 416 271Q419 273 423 278T430 284Q437 294 437 298V308ZM319 261L320 262L319 261Z" />
<glyph unicode="A" glyph-name="null" horiz-adv-x="645" d="M598 54L563 48Q551 46 538 48T511 50Q508 50 502 50T489 50T474 50T462 49L440 64Q443 84 439 93T432 110Q430 116 424 129T413 159Q413 162 403 177T387 204L375 199Q370 199 364 196T334 193Q331
199 324 201T309 203T292 196T277 184L236 178Q232 187 228 192T219 203T211 214T208 230Q228 235 231 243T237 250Q243 247 248 247Q241 247 244 249T271 259L344 268L359 257Q375 253 383 255T394 262T397 275T399 287Q401 298 395 305T377 319Q375 330 370 344T356
379Q349 398 344 419T334 459T328 489T325 503Q311 512 302 505T288 483T281 454T280 432Q279 430 275 426T266 416T257 407T252 400Q248 393 250 385T247 371Q227 335 200 314Q193 308 189 297T184 274T186 251T197 232Q187 226 182 220T173 206T166 190T159 171Q142
126 142 124L128 95L115 42Q116 27 105 24T68 21Q44 15 26 15T14 34Q40 96 52 126T65 173Q65 178 69 181T77 187Q78 189 84 208T99 250T114 295T126 325Q135 344 147 368T177 414Q186 426 192 447T205 493T218 544T236 592Q242 594 271 636Q273 638 274 640T278
645L406 653Q410 648 415 641T426 626Q445 602 449 588T454 569Q452 566 475 501Q481 485 485 465T491 428T493 398T492 384Q490 383 524 359Q532 353 533 348T534 339T529 332T526 328L553 292Q553 292 576 205Q589 163 595 134T601 88Q601 86 602 85Q602 86 604
80L598 54Z" />
<glyph unicode="B" glyph-name="null" horiz-adv-x="626" d="M469 621Q471 610 478 607T487 599Q489 588 492 581T506 568Q517 562 519 553T529 534Q530 530 530 523T528 510T524 497T521 490Q520 487 519 484T516 477Q514 472 511 465T502 448Q484 413 472 403Q471
401 463 401T444 400T426 396T418 385Q411 383 412 379T418 369T427 360T429 354Q446 350 468 351T504 352Q510 341 518 336T542 330L602 257L599 159L567 119Q532 119 504 86L477 53Q466 48 448 47T389 45Q362 45 337 46T291 47T258 47T245 43Q229 46 221 45T207
46L106 27L81 48Q82 57 84 69Q89 85 90 96T92 116Q92 118 91 124T87 135L91 196Q107 193 119 202L126 222Q118 236 115 243T98 251L92 313Q97 314 99 318T101 326L102 334Q104 339 106 340Q111 354 114 378T120 437Q124 472 125 497T127 528Q127 529 124 558Q121
586 97 601V655Q102 663 128 663Q135 664 140 664T150 664H160Q166 664 184 664T217 668Q220 670 229 673T240 676L355 673Q356 666 361 661T374 651T387 643T397 638Q407 638 414 638T427 636Q436 635 455 636L469 621ZM240 113L373 102Q386 105 395 108T414 116T433
132T459 159L478 220L453 294L314 343L260 344Q246 339 240 325T234 295Q235 265 238 268Q239 264 235 250T229 209Q228 196 228 186T228 169V153L227 132L240 113ZM251 584L252 547L238 524L251 488V425L266 409H291Q302 410 311 409T323 407Q334 407 338 411T344
416Q347 416 355 411L375 424Q373 433 375 442Q376 450 378 458T386 475Q396 490 399 497T406 515Q403 530 398 539T386 555T376 567T370 578Q362 587 358 598T351 609L312 617L271 608L251 584Z" />
<glyph unicode="C" glyph-name="null" horiz-adv-x="605" d="M447 592L379 593L323 574Q320 574 303 542Q296 526 287 507T273 483L250 333Q248 333 236 299Q231 282 226 272T218 255Q218 248 237 217L261 231L283 188L270 163Q273 158 275 155T279 148L282 142Q282
139 294 126Q305 112 312 112Q323 112 328 116T337 120Q340 120 344 117T351 112Q398 106 433 133Q444 135 462 137T492 152Q496 153 502 158T515 169T530 183T547 195Q552 198 555 190T563 184L573 172L556 121L518 91L464 76Q439 68 411 59T369 48Q358 47 345
44T320 37T299 31T288 28Q250 28 233 28T208 27L118 93Q116 112 88 153Q61 190 61 199L70 281Q73 302 75 324T78 366T79 399T80 416Q88 420 103 435T130 479Q155 531 148 571Q153 573 176 578T223 593Q247 602 260 607T275 613Q276 614 283 616T300 619T319 622T332
624L363 654L453 655L475 641L469 609L447 592Z" />
<glyph unicode="D" glyph-name="null" horiz-adv-x="660" d="M74 61V85Q74 96 72 106Q77 115 73 160Q71 184 70 199T68 220V228Q68 232 68 236T70 246Q71 269 73 277Q74 280 78 285T82 297Q82 342 86 393T92 490Q93 525 93 546T94 572Q95 585 95 600T94 630Q94
633 93 634L119 655H206Q220 657 226 656T234 653L256 637Q265 626 271 625T282 627T291 639T299 654L352 651L431 618Q435 614 438 611T444 605Q449 600 453 596T460 592Q462 592 479 587T511 559Q522 559 533 552T553 537T565 521T568 512Q551 496 557 484T577
467Q581 450 593 444T611 434Q611 431 613 404T619 324Q621 298 623 279T627 246Q629 238 630 232T632 220Q633 215 598 163Q562 113 562 96H509Q505 96 499 93T487 85L471 75Q468 74 465 74T458 73Q452 72 443 71T421 68Q396 63 379 62T351 63Q350 76 283 55Q266
50 248 47T215 41Q206 39 198 38T181 36L159 41Q153 40 147 39T139 37Q136 37 131 39T121 41Q119 41 113 41T104 38L74 61ZM268 99Q278 103 289 110T309 115H337Q339 115 346 120T356 126Q360 126 360 123T371 119Q375 119 390 123T422 136Q440 144 450 148T463
153Q464 155 464 158T467 165Q469 171 471 179T479 198Q486 222 490 235T494 253L462 371Q462 378 463 382Q463 387 463 394T465 413Q469 456 470 456Q469 457 464 467T448 494Q438 512 432 531T421 551L342 602H267Q267 590 262 589T257 585V567Q257 559 257 548T256
523V457Q239 448 237 436Q237 427 228 408Q226 406 226 401Q226 387 226 382T224 363Q222 361 228 328Q234 293 235 292Q234 287 233 278T228 257Q225 245 224 239T223 231Q223 219 226 188Q227 172 227 161T228 144Q230 136 231 128T235 111L268 99Z" />
<glyph unicode="E" glyph-name="null" horiz-adv-x="570" d="M532 378Q532 375 531 369T527 355T524 342T522 333Q487 330 477 328T464 325H397Q382 325 374 325T362 326T355 326T349 324L328 311L297 325Q296 330 288 336T276 350L308 394Q328 394 329 394T330
394Q330 395 336 396T350 399L365 402Q372 403 430 399Q431 399 444 394Q449 392 469 395T516 399L532 378ZM536 106Q534 100 534 92T535 81Q533 79 523 76T495 66Q476 61 459 64T426 63Q377 63 325 48Q311 44 301 41T284 36Q280 34 277 34T270 32L192 29Q183 26
173 27T153 31T135 37T122 40Q117 40 105 40T83 39Q73 46 65 53T64 80Q66 90 71 100T75 122Q74 126 71 135T66 154T65 174T76 191Q84 204 83 215T74 240Q80 247 81 256T82 275T79 291T74 301Q77 315 80 338T85 386T89 432T89 463Q88 476 91 490T98 518T104 547T103
573L105 579Q107 581 98 610L114 645H115Q135 646 156 647T194 649T223 650T236 651H374Q381 651 392 644Q404 638 472 638Q473 634 474 630T476 622Q479 604 483 594L477 584Q462 583 454 583T443 583T438 584T436 585L358 595Q329 601 286 588Q267 583 255 585T239
586Q227 590 219 586T214 571Q217 561 221 559T227 551Q225 548 228 543T237 532Q243 526 249 525T255 522Q255 520 250 502T242 457T240 401T255 345Q250 334 246 304T240 241T236 184T235 156Q234 156 233 153T229 145T224 139T217 138V129Q217 129 223 129H227Q226
124 226 115T225 100L301 110Q321 108 347 109T407 116Q440 121 461 119T492 126L517 127L536 106Z" />
<glyph unicode="F" glyph-name="null" horiz-adv-x="598" d="M465 618Q458 616 451 609T440 600L333 577Q330 577 324 576T311 574T294 579T276 594Q264 595 256 591T245 578T248 559T273 537Q276 535 274 532T262 512Q257 501 253 494T246 481T241 469T236 453Q235
447 235 433T237 399Q241 376 246 366Q248 361 252 355Q242 348 237 329T237 281Q240 272 240 249T244 191Q247 173 245 158T240 130T234 105T232 84Q222 77 229 59L206 35H151Q142 33 131 33T107 31Q104 31 102 31T97 30L82 51Q82 63 82 81T80 126Q80 168 88 192T96
222Q95 228 95 236T93 251T90 264T83 270L85 321Q94 348 92 400Q91 424 93 445T102 484V518Q111 515 101 537Q90 561 104 558Q106 575 106 587T104 619L123 645Q133 644 145 647T172 648Q184 646 200 646T232 647T260 648T277 648Q298 645 309 646Q315 646 323
648Q324 651 332 652T341 658L391 648Q394 648 400 651T412 658Q419 662 426 669Q440 669 454 668T476 664L478 654Q477 650 477 642T476 629L465 618ZM552 378Q552 375 551 369T547 355T544 342T542 333Q507 330 497 328T484 325H417Q394 325 387 326T375 325L369
324L348 311L317 325Q317 328 311 330T298 336T284 342T276 350L328 394Q348 394 349 393L350 394Q350 395 356 396T370 399L385 402Q392 403 450 399Q451 399 464 394Q469 392 489 395T536 399L552 378Z" />
<glyph unicode="G" glyph-name="null" horiz-adv-x="690" d="M412 663L429 651L437 627Q434 626 430 624Q423 620 413 614T394 601T378 590T370 585L358 579Q350 574 340 570L321 560Q316 558 313 556T305 552Q302 544 295 534T280 514T264 496T249 483Q250 480
250 476T246 468Q243 463 240 447T234 405Q231 397 222 393T209 380Q207 371 205 360T210 347Q223 344 225 342Q223 328 222 319T219 300T216 282T214 258Q212 229 212 213T212 192L236 112Q245 110 260 108T298 100Q341 92 343 97Q342 104 391 116Q441 127 441
134L462 132L449 78Q447 77 445 77T440 76Q435 75 430 74T416 71Q400 68 391 67T380 64Q356 61 342 41Q325 21 324 26Q314 22 301 29Q291 38 260 31L160 43L64 109Q80 121 50 194Q42 213 37 227T27 250Q25 255 24 259T20 268Q19 288 25 313T35 362L53 374Q67 383
73 392T67 415Q69 427 70 441T73 468T76 490T77 500L116 556Q118 558 129 561T158 569Q167 571 171 575T178 584T181 593T185 598L320 639Q337 642 358 648T390 662L412 663ZM379 268Q380 269 380 270V271Q373 282 367 289T359 300L394 339H423Q425 339 433 339T457
337Q486 335 489 347H605Q621 347 638 344T667 339Q667 332 664 318T660 292Q653 289 640 286T622 280L580 283L571 260Q580 254 588 254T609 253Q610 245 607 229T600 186T591 125T585 45L491 28L485 58Q486 63 486 85T486 150Q485 171 485 189T485 222V269Q462
267 440 264T408 258L392 257L379 268Z" />
<glyph unicode="H" glyph-name="null" horiz-adv-x="845" d="M322 314L310 373L319 382H371Q378 382 387 382T410 381L501 388Q515 388 527 389T549 395Q551 398 555 400T564 416L568 451Q575 449 568 472Q564 483 564 489T570 496Q572 505 576 520T584 554T593
592T600 629L663 654Q674 655 687 657T714 661Q727 663 736 664T754 668L775 649V598Q761 585 751 571T739 540L736 520Q734 503 731 484T722 458L719 450L724 433Q725 428 727 430Q728 431 730 430Q727 423 723 414T714 393Q708 383 708 378T715 374Q715 372 714
344T707 259Q705 231 704 218T702 199T701 192T700 188Q693 173 690 160T686 142Q685 139 687 135T692 127Q696 121 699 118L703 85L678 59L549 37H548L522 60Q523 63 524 69T526 83Q528 97 528 102T528 118Q527 124 531 150T538 219Q544 300 536 300Q531 300 534
319Q528 319 520 319T510 317Q490 308 473 305T445 301Q438 301 420 306T370 311L332 309L322 314ZM237 57L196 56H155L146 55L97 74Q98 84 99 96T101 124Q103 154 103 171T104 195V226Q104 244 97 244L104 300Q116 332 119 380Q121 407 125 438T137 488L141 539Q148
538 141 559Q135 582 148 582Q150 594 151 603T153 621Q152 633 156 661L169 667Q182 662 206 659T252 653Q265 651 275 651T292 649L306 630L303 594Q297 544 303 544Q290 521 285 499T274 459Q270 444 270 401Q270 390 273 386T281 379Q287 377 292 378Q286 372
281 361Q276 351 271 337T263 307T257 277T257 251Q258 241 261 225T267 190T272 150T274 110Q262 101 268 80L269 78L237 57Z" />
<glyph unicode="I" glyph-name="null" horiz-adv-x="371" d="M307 656V578Q295 531 288 496T276 430T272 373T273 316Q275 280 271 251T264 198T259 153T265 109L270 84L253 55L120 29L84 52Q85 56 95 63T106 79Q106 91 106 96T104 112Q102 117 109 144T116 220Q116
244 116 255T117 270T118 273T115 272Q116 280 118 290T122 312Q124 318 125 324T127 337Q130 340 127 349T119 363Q116 368 116 368T118 367T124 371T132 390L125 434Q127 434 128 433T130 434T129 445T125 470Q121 503 124 509T133 515Q138 519 141 523T146 533T146
549T139 577Q134 592 140 607T147 637L168 658Q182 658 205 658T245 660Q281 663 297 663L307 656Z" />
<glyph unicode="J" glyph-name="null" horiz-adv-x="429" d="M379 737L387 720Q387 717 384 690T377 622T368 536T358 449T351 381T348 349Q348 336 345 321T342 300Q342 267 344 250T343 218Q343 215 338 199T325 136Q320 113 317 102T311 87T307 82T305 80Q291
59 273 42T244 14Q233 2 226 -5T214 -17L117 -38L44 -41L22 -3L20 10L27 16L91 24L115 36Q127 41 132 49T145 66Q160 85 173 104T185 155Q183 188 188 211Q189 224 191 235Q191 240 192 251T194 276T196 301T196 322Q194 338 194 343T193 351Q193 354 198 363T208
379Q210 384 205 417Q203 434 201 444T199 458Q201 460 205 463T211 469Q205 472 205 561Q205 584 207 606T210 646T213 676T212 692Q223 697 225 703T226 720Q232 722 247 724T286 727Q329 730 353 739Q357 738 360 738T366 738Q371 737 374 737T379 737Z" />
<glyph unicode="K" glyph-name="null" horiz-adv-x="707" d="M64 91Q66 112 67 155Q69 184 74 200T79 223Q79 227 80 233T81 245T79 255T70 259L76 321Q87 350 88 398Q89 421 88 441T92 477L95 521Q114 518 105 538Q102 549 101 554T102 559Q104 570 104 586T107
638L127 649Q141 643 166 639T209 632Q229 629 241 628T257 625L265 607Q261 586 259 564T255 520T251 479T246 445Q242 435 244 392Q245 387 245 382T245 373V361Q245 354 244 351Q230 343 226 325T224 283Q226 274 230 269T238 242Q241 231 241 217T242 189T240
162T239 138Q226 128 227 116T230 93Q225 90 220 88Q218 87 217 87T215 86Q211 84 209 83T204 81H203L204 82Q206 84 206 85Q203 84 182 84H121Q111 83 99 82T78 79L64 91ZM651 49H532L481 62L485 110L448 163L397 231L333 281L301 287Q294 308 284 323Q282 327
280 330T276 335Q273 341 269 344L264 350Q271 359 276 361T287 365T301 374T326 403Q335 416 342 425T355 442Q358 446 361 449T366 455Q376 463 403 490T474 565Q503 597 523 618T556 652L579 657Q586 649 591 644T601 632Q609 636 615 630T624 616Q624 614 628
611T637 605T643 597T639 587L621 569Q617 565 614 562T608 554Q599 547 563 531Q525 514 515 503Q510 496 505 486T493 466T479 446T463 433Q462 432 461 431T453 424Q452 425 451 426T447 429Q446 430 445 430T443 432Q441 427 436 426Q434 425 429 425Q417 416
417 405T421 385Q422 384 413 374T396 354L425 339L474 277L576 177L651 102L676 88L675 70L651 49ZM202 80L203 81L202 80Z" />
<glyph unicode="L" glyph-name="null" horiz-adv-x="500" d="M78 65Q79 70 79 74T81 84Q87 126 87 141Q87 144 86 151T83 161L92 384Q87 391 90 402T99 417Q103 431 110 449T116 490Q115 501 118 508T123 518L131 526Q139 534 140 540Q141 547 138 553T131 562T123
568T119 572Q121 578 121 582T115 591L117 615Q122 622 135 622T157 623Q160 623 167 623T183 624L201 625Q206 626 209 626T216 626L227 631Q234 635 238 635Q241 635 249 633T268 624L263 527L253 442Q253 438 248 426T238 405Q236 403 236 398T236 386T237 373T237
364L230 291Q230 289 229 288T226 281T222 265T219 237Q217 199 215 184T213 167Q213 157 219 153T226 141Q222 137 228 126T252 112Q269 109 290 114T336 122Q345 122 347 120T352 116T361 111T386 107Q390 107 401 113T411 132Q419 132 431 135T457 140T480 141T493
130L497 115Q496 113 496 111T495 105Q494 100 492 92T488 72Q467 70 465 71T461 72Q458 72 452 69T441 63Q435 62 422 60T388 56Q377 54 370 54T357 52Q353 51 347 51Q346 51 340 51T326 50H296Q276 52 268 53T255 54T247 51T232 42Q228 41 217 41H174Q166 42
162 42T152 44L113 32Q99 34 91 44T78 65Z" />
<glyph unicode="M" glyph-name="null" horiz-adv-x="800" d="M420 167L375 194L358 231L293 298L286 313L249 361L243 379L241 372Q240 368 240 354T235 334Q232 330 228 319T223 303L220 268Q221 266 222 265T225 260T226 248T223 223Q217 192 218 176T220 157Q220
153 221 142T219 110Q214 72 217 49L206 43Q202 44 194 44T177 44T157 43T140 42H127L85 32L59 46Q59 62 63 82Q66 102 68 117T70 140Q70 142 68 149T65 160L72 311Q75 311 76 318T77 333T76 348T74 358Q73 359 75 366T82 381L89 396Q91 400 92 401T95 404Q97 410
96 414T94 423T91 437T92 463Q96 497 98 519T101 548V571Q99 580 99 588T91 602L92 615Q96 624 123 624H176Q182 624 191 630T213 637Q218 639 225 642T235 646Q239 646 245 644T259 636V615L313 508L329 424L363 369L395 299L410 295L443 325Q445 330 447 336T454
347Q460 357 468 369T489 395Q537 447 531 466L574 536Q591 529 602 539T619 588Q619 590 618 594T615 603Q628 609 630 615T632 633Q644 638 653 639T674 644L742 603Q741 594 740 584T737 563Q735 549 733 534T730 504T727 477T724 458Q722 448 720 424T715 357Q712
274 736 261Q736 254 736 230T734 161Q733 139 733 122T733 92V61Q706 54 677 48T630 42Q623 42 616 47T607 63Q614 69 614 69T610 74V192L617 208H610V254Q610 265 609 284T606 332Q603 361 602 376T601 394Q601 397 606 407T617 425Q619 430 619 435T619 445Q619
449 623 452T630 458Q628 464 626 471T623 480Q575 502 594 447L571 397L502 295L440 176L420 167Z" />
<glyph unicode="N" glyph-name="null" horiz-adv-x="673" d="M262 623Q262 618 262 616T260 612Q262 607 262 604T262 597T261 590T263 578Q268 564 273 560T285 550Q275 541 275 535T279 524Q283 520 291 517Q293 515 300 510T314 506L380 398L494 252Q506 251
507 265T507 297T500 329T496 341Q493 370 490 386T492 421Q497 426 494 441T486 473Q484 482 484 493T485 515T486 535T486 549Q486 559 484 568T485 585Q486 589 486 590T487 594T487 600T486 612L500 626Q503 630 510 632T524 634T538 635T548 634Q555 632 564
632T581 632L599 627L610 578Q596 563 594 549T593 521Q593 497 594 486T598 469T603 463T608 460Q606 452 602 445T591 429Q588 425 588 420T592 409T599 401T607 398Q609 395 607 382T611 326Q613 305 611 291T605 266T600 247T598 229Q599 229 600 220T602 201T604
182T608 174Q606 138 609 111T610 81L614 68L573 53Q567 53 561 53T550 52Q540 51 530 50T514 48L494 59Q495 69 498 73Q505 77 503 103Q502 112 499 114T492 121L351 309Q348 312 346 315Q342 320 338 333Q334 346 327 360T302 386L296 442Q293 457 264 449Q259
445 258 441T257 433T259 425T259 418Q258 414 257 412T256 404T254 390T252 362Q251 344 250 326T248 291T249 262T258 246Q258 234 249 147Q246 115 245 94T242 59L229 43Q216 41 196 39T155 35T117 32T92 31Q86 31 79 35T67 50Q73 58 74 58T71 57V167L84 189L69
226L71 254Q71 259 73 270T77 296T80 324T81 351Q79 374 78 386T77 401Q77 405 82 415T92 433Q95 438 94 443T94 453Q96 457 99 459T100 457Q106 454 103 472T98 516L97 569Q96 574 96 578T90 590Q104 597 106 603T108 621Q116 624 133 625T171 628T210 632T241
639L262 623Z" />
<glyph unicode="O" glyph-name="null" horiz-adv-x="645" d="M582 488Q586 466 586 445T585 403T585 365T595 330Q592 325 584 310T571 279Q567 264 572 256T576 246Q575 243 574 240T571 231Q568 223 562 211T544 183Q533 167 530 156T526 135T525 119T521 106Q519
104 512 104T495 101T474 95T452 81Q433 77 423 71T391 62Q368 57 360 50T349 42Q320 42 304 41T283 37L273 35Q270 34 260 34L120 77L49 157Q49 188 49 209T48 247T47 279T48 312Q52 315 61 330T81 365T100 406T114 441Q118 456 121 464T126 479T131 491T135 506L161
532Q161 533 172 546T199 576T232 607T260 622L309 627L329 625Q333 624 336 624T343 624H350L384 593Q385 582 389 575T409 564Q425 560 426 560Q427 559 426 558Q445 558 466 568T507 579Q512 579 518 574T530 562L542 549Q548 542 553 541Q551 522 554 514T563
502T574 496T582 488ZM414 184Q420 188 424 189T431 195T438 208T447 238Q453 258 457 271T463 294T466 312T467 329Q467 346 469 367T465 413Q460 430 459 451T455 487Q445 493 443 506T430 531Q424 536 418 537T406 537T396 534T389 532Q386 532 377 533T357
535T334 531T315 517Q284 482 279 473Q265 447 255 423T236 387Q232 377 220 357T207 300Q208 297 204 286T197 258T191 226T194 196Q198 186 211 165T256 119Q276 106 283 93T295 79Q300 79 311 79T327 75L414 184Z" />
<glyph unicode="P" glyph-name="null" horiz-adv-x="569" d="M91 685Q99 687 109 689T130 695Q150 699 158 702T176 707Q187 709 194 709T216 710Q217 706 219 702T222 692Q233 668 243 665T261 668T274 683T282 692H364L452 631Q460 626 469 618T489 599Q510
577 517 578L511 530Q511 529 514 528T520 523T526 509T527 483Q524 448 527 421T530 377Q530 376 509 366Q488 358 488 336Q483 337 462 336T418 324L375 307H314Q295 307 281 303T258 293Q249 288 244 284T222 279Q224 268 226 264Q223 255 218 242T212 223Q212
217 212 206T214 178Q215 160 206 149T197 130Q200 117 202 102T208 71L193 42Q191 41 190 41T186 40Q164 33 152 33Q150 33 145 33T132 35T119 36T111 37Q109 37 103 32T88 23L64 33Q62 49 62 69T61 103Q64 107 69 119T72 154Q70 177 73 191T76 213Q76 216 74
229T72 251Q73 254 77 259T81 272Q80 304 80 323T76 362Q75 366 77 370T80 383Q80 391 86 420T87 503Q82 555 79 584T77 619Q79 630 78 636T77 654L91 685ZM364 372Q364 377 384 397Q405 416 405 423L392 514L384 545L298 641H260L240 645L232 641Q230 635 230
572Q231 506 230 497Q210 486 218 452Q227 419 217 400Q214 397 214 391Q214 377 214 371T213 351Q213 350 214 345T217 330L256 341Q256 331 295 351Q315 362 326 367T339 372H364Z" />
<glyph unicode="Q" glyph-name="null" horiz-adv-x="674" d="M595 492Q599 470 599 449T598 407T598 369T608 334Q605 329 606 314T604 283Q600 268 605 260T609 250Q613 249 614 245Q615 241 612 232T597 207Q586 192 583 181T578 160Q578 155 587 147T608 131T631
116T645 107Q654 101 661 92T670 74T666 60T644 54Q641 54 627 50T597 41T566 32T548 25Q545 24 536 34T517 56T497 77T485 85Q466 81 456 75T424 66Q401 61 383 54T362 46Q333 46 317 45T296 41L286 39Q283 38 273 38L133 81L62 161Q62 192 62 213T61 251T60 283T61
316Q65 319 74 334T94 369T113 410T127 445Q131 460 134 468T139 483T144 495T148 510L174 536Q174 537 185 550T212 580T245 611T273 626L322 631L342 629Q346 628 349 628T356 628H363L397 597Q398 586 402 579T422 568Q438 564 439 564Q440 563 439 562Q458
562 479 572T520 583Q525 583 531 578T543 566L555 553Q561 546 566 545Q564 526 567 518T576 506T587 500T595 492ZM431 153Q434 155 426 163T408 182T390 203T385 219Q390 227 392 232T399 249Q400 251 412 250T440 246T467 241T480 242Q486 262 486 275T486
298T482 316T480 333Q480 350 482 371T478 417Q473 434 472 455T468 491Q458 497 456 510T443 535Q437 540 431 541T419 541T409 538T402 536Q399 536 390 537T370 539T347 535T328 521Q297 486 292 477Q278 451 263 427T239 391Q237 386 231 379T218 362T206 337T200
304Q201 301 201 290T201 263T203 230T210 200Q214 190 225 169T269 123Q289 110 296 97T308 83Q313 83 324 83T340 79L431 153Z" />
<glyph unicode="R" glyph-name="null" horiz-adv-x="679" d="M209 45L197 41Q183 36 165 35T141 33Q138 33 128 34T112 36Q109 36 104 31L59 47Q59 52 59 56T61 65Q63 79 64 91T64 115Q72 123 66 164Q60 206 60 217Q60 220 62 233T66 256Q67 259 70 264T74 275Q72
304 76 322T79 360Q78 365 80 370T82 383V416Q82 430 82 447T83 488Q84 533 84 548T87 569Q88 579 92 585T97 605Q97 606 94 611T85 624Q82 628 81 634T80 645Q81 651 81 655T82 678Q109 686 137 686T182 688Q188 689 191 690T198 691T205 692T219 693Q223 683
230 671T241 649Q254 631 266 632T288 641T306 658T315 668L428 667L514 608Q519 603 527 597T544 579Q564 558 574 559L598 524Q596 521 590 507T571 466Q548 412 548 382L528 370Q508 362 508 329Q491 331 452 316Q441 311 428 310T404 307Q397 306 391 306T377
306L366 281Q354 290 339 293T310 295T282 291T260 284Q227 272 226 272H220Q221 271 221 269Q219 259 215 246T210 227Q210 221 211 211T213 183Q214 167 214 156T215 139L219 112Q221 104 222 97T225 81L209 45ZM246 581Q246 573 246 562T248 537Q253 475 251
463Q231 451 227 427Q224 414 221 403T214 383L212 381Q212 370 212 365T213 353L232 340L251 345Q251 323 305 346Q358 368 365 368H407Q415 379 426 391T437 407L450 480L444 505L311 600H267L246 581ZM536 43Q534 52 524 55Q520 59 521 66T519 75Q518 77 517
77T514 78Q513 80 508 85Q505 89 501 93T492 106Q481 120 475 128T466 139Q462 141 454 147T443 154Q440 157 438 161T434 167Q432 169 429 181T423 202Q412 212 390 238Q383 245 382 247L395 266L443 242Q444 241 453 242T474 243T495 243T509 237Q513 232 519
230T531 227T542 224T548 220L568 183Q572 178 582 167T611 135Q647 93 648 92L645 57L565 34L536 43Z" />
<glyph unicode="S" glyph-name="null" horiz-adv-x="542" d="M89 116L203 133L312 165L338 207L327 250L301 282Q290 289 279 295T256 305T233 309T210 301L185 283L102 322L72 399L98 528L144 589Q147 582 156 584T174 592T189 606T192 622Q209 627 231 632T269
649L398 676L419 678L437 657L421 614L384 604L336 599L263 562L229 518Q213 503 213 486T222 448Q233 425 238 419T253 407L312 387Q322 379 330 375T350 369Q361 368 381 367T434 364Q443 347 455 335T478 302L498 257L468 157L444 131L395 60H370Q357 60 339
60T295 59Q270 59 251 54T217 44T191 34T171 31L135 42L75 32L54 75L60 100L89 116Z" />
<glyph unicode="T" glyph-name="null" horiz-adv-x="522" d="M497 549Q487 549 474 549T444 551Q415 552 391 552T359 555V479Q345 468 339 435Q331 336 329 277T328 184Q329 164 330 151T333 129L344 76L339 68L218 41H215Q213 41 211 41T206 40L173 63Q173 64
174 64T176 67T178 76T179 95Q179 105 179 109T178 122Q176 134 178 176Q179 218 164 218Q166 229 166 244T168 272Q169 280 169 287T169 303Q170 304 170 305T172 307L173 308Q178 316 178 320T182 342V385Q201 382 190 417Q181 455 187 455Q190 468 193 485Q195
499 197 515T201 549L197 552Q190 546 181 548T163 551Q140 548 124 546T98 539Q92 537 87 536T82 522L25 510L7 523Q3 533 0 542T-4 566L8 595Q22 597 30 597T43 597T50 595T54 594Q65 599 77 603T105 612T144 619T199 627L290 631L300 623Q305 620 311 618T323
615Q330 614 336 620Q338 622 340 626Q348 628 366 627T423 619Q489 608 510 607L516 597V564L497 549Z" />
<glyph unicode="U" glyph-name="null" horiz-adv-x="693" d="M539 642L555 647L580 656L637 638L645 617Q631 574 620 532T616 441Q614 437 612 427T609 407T610 387T621 374L607 263L582 156L539 54Q534 45 513 39T456 30T374 25T272 25L237 48H204Q192 48 153
87Q143 97 136 104T124 117Q121 121 115 127Q115 132 114 145T107 180Q104 200 97 208T89 222Q88 226 89 236T91 257T91 276T82 284L88 343Q93 357 95 382T97 435Q96 461 97 473T103 500L111 527Q121 533 124 541T128 558T123 573T114 582Q106 584 106 593T109
603Q111 614 109 620Q108 622 108 656L130 665Q142 665 155 670T183 674Q191 674 204 672T230 668T255 663T273 660L286 648Q283 637 282 630T281 618Q281 614 283 608L287 552Q287 552 285 546Q283 543 281 539T277 528Q272 516 269 507T264 488Q263 483 263 468T267
427Q268 415 268 405T269 386V369Q257 362 258 344T263 304Q264 300 262 293T256 274T251 249T251 217Q253 199 254 185T256 159Q257 153 257 147T257 136L300 120L426 97L467 119Q477 118 485 131T498 157L526 302L510 369L522 606L539 642Z" />
<glyph unicode="V" glyph-name="null" horiz-adv-x="662" d="M378 220Q382 222 384 229T387 246T390 264T396 280Q408 298 416 310T431 331T442 345T448 357Q461 367 462 375T471 397Q476 407 482 423T489 443Q492 452 499 463T514 488T528 517T534 550Q535 572
535 588T538 617L569 624L604 608Q604 592 614 581T626 560Q626 552 614 533T596 485Q595 477 584 465T572 435Q572 418 565 401T555 376Q546 354 529 317T485 226Q459 172 442 142T422 105L414 87L406 71L367 44L302 43L282 33L246 74Q240 89 229 107T207 149L184
208Q193 229 193 241T189 259T175 266T156 269Q150 270 143 281T129 297L127 320L101 362L93 448Q95 455 92 459T82 465L70 470Q63 473 62 477Q54 493 50 506T42 531T36 551T26 566L27 607Q39 614 59 616Q82 618 94 632L127 642Q139 632 151 624T169 609Q185 590
211 578Q212 573 217 555T230 512T248 458T267 400T286 349T303 311Q306 305 310 292T318 266T325 240T331 224Q338 224 343 222T353 218T364 216T378 220Z" />
<glyph unicode="W" glyph-name="null" horiz-adv-x="862" d="M604 58H571L541 90L529 122Q528 124 528 127T527 134Q526 140 525 148T521 170Q511 218 505 205Q485 163 465 137T437 95L430 77L409 32L303 31L290 25L253 44Q249 54 245 67T235 96Q233 101 227 105T216
114T207 124T207 135Q211 141 208 147T199 161T189 173T186 182Q198 200 199 211T197 232Q194 239 190 241T182 243T175 243T169 248Q164 258 164 267T162 278Q157 280 151 280T134 288Q115 373 68 457Q52 489 44 517T23 558V602Q32 608 42 610Q61 613 70 628L108
630Q112 626 122 626T144 627T164 629T175 627Q193 606 217 594Q216 588 224 564T245 505T274 431T303 356T326 291T337 250Q374 184 383 180Q398 175 413 189T426 242Q424 279 435 301T452 338Q447 344 445 351T442 366T438 377T431 382Q432 383 432 384T433 387Q434
389 435 393T436 402Q436 404 430 436Q429 444 428 455T427 479T426 500T425 515Q417 529 414 546T398 577Q396 580 396 587T397 601Q398 608 400 619L436 624L443 631Q449 637 462 639Q469 639 483 640T511 641T537 638T551 628Q552 623 569 622Q574 596 580 563T591
497T598 432T600 377Q605 373 603 369T601 354Q605 348 607 339T610 324Q610 320 609 311T601 286Q597 287 591 284T579 276T570 264T568 251Q575 240 590 235T620 231Q631 228 639 231T652 248L710 355L708 392L780 564L818 617H869L879 605L888 569L839 461L801
376L753 289L678 161L643 106V86L604 58Z" />
<glyph unicode="X" glyph-name="null" horiz-adv-x="647" d="M554 577Q545 557 533 537T509 493Q478 430 461 413Q457 404 449 390T431 349Q458 315 472 285T495 243Q498 240 506 234T525 220T545 203T562 185Q576 168 587 152T610 133Q610 122 611 117T614 109Q615
108 626 108V86Q605 72 587 59T557 36L521 27Q519 30 508 38T482 55T456 72T441 84Q430 100 423 109T411 123Q408 125 402 131Q397 135 390 141T373 157Q362 166 356 175T344 193T333 213T318 233Q299 202 288 178T268 141Q251 109 246 107Q243 106 233 107Q226
99 218 85T198 51Q192 40 188 32T181 18L150 15L130 19L100 56Q109 77 114 93T131 115Q152 136 180 193Q187 208 190 218T196 235T201 247T209 259Q239 253 253 253Q260 253 264 263T268 287T266 312T258 326L223 329Q219 343 211 363T189 396Q183 402 178 405T168
410T161 416T156 428L128 453Q132 464 131 476T119 494Q114 497 110 498T103 500H97Q94 503 87 519T60 571L70 596L196 633L225 623Q225 620 223 618Q218 616 229 603Q234 600 237 597T245 592Q251 587 257 582T266 574Q267 572 268 571T269 567T271 558T273 541Q273
535 281 523T302 495T326 465T345 438Q367 428 371 422Q380 437 389 453T406 485T419 512T424 533Q424 549 431 555T439 565Q439 567 450 582T466 619L495 637H531Q540 635 553 626T569 607L554 577Z" />
<glyph unicode="Y" glyph-name="null" horiz-adv-x="603" d="M559 670L602 653Q602 638 601 627T597 605Q595 597 587 579T573 531Q572 524 566 516T553 500T537 484T524 467Q505 427 491 402T471 361L465 346L460 318V286Q460 281 460 275T461 262Q461 248 459
231T453 196T447 164T444 140L456 81L446 53L337 28H330Q326 28 321 28T308 27H296L264 56Q270 62 270 85Q270 95 271 99T269 113Q268 119 270 137T277 186Q279 202 279 218T280 248T279 270T274 279Q272 281 271 284T267 290Q264 295 259 303T248 322Q237 341
231 348T219 358T206 365T187 381Q176 424 150 462T92 535Q71 558 62 575T38 603L34 648Q43 654 54 656Q59 657 69 660T91 668T112 678T123 688L157 687Q166 679 172 673T184 660Q201 639 225 630Q225 614 231 602T243 580Q250 571 258 568T273 546Q273 544 271
538T266 526T259 514T252 508Q249 508 252 506T263 501T280 494T299 483Q299 481 298 479T297 472T304 462T325 446Q339 435 340 429T338 417T334 405T342 390Q348 384 359 384T380 385T399 393T409 404Q413 417 416 428T424 448Q437 459 441 467T451 489Q457 502
460 513T466 525Q473 545 484 567T503 615Q508 632 512 646T519 669L559 670Z" />
<glyph unicode="Z" glyph-name="null" horiz-adv-x="567" d="M52 108Q54 112 56 115T60 123Q71 141 74 157T85 174Q94 175 100 180T109 191T110 204T97 215L182 321Q192 316 200 327T214 355T222 387T224 406Q230 414 241 426T266 471Q281 503 288 521T298 543Q302
552 305 557T309 563L294 583Q283 582 278 575T259 566Q252 565 247 565T238 564Q235 563 231 563Q224 563 205 573T162 589Q163 587 161 585T156 581T151 577T151 572Q147 572 144 573Q140 574 135 575T123 578Q109 583 101 584T90 586Q85 586 83 591Q83 592 82
598T80 614T76 632T70 646L84 672Q101 672 122 671T169 668Q209 665 236 663T280 662Q274 633 308 649Q317 653 327 655T348 659T367 660T380 659Q392 650 423 649Q439 648 451 645T475 634Q473 628 472 619T471 602T470 588T470 581Q474 575 483 570L481 566L479
567Q479 550 479 546T471 542L470 540L416 437Q375 372 351 332T312 268T291 229T277 200Q271 187 263 179T247 167T234 160T228 157Q214 151 213 143T217 128T235 119T263 122Q269 122 273 124T281 129T290 135T306 142Q327 147 332 144Q337 142 345 142T367 142Q403
143 406 142Q408 140 412 132Q423 133 437 136T471 145Q476 147 480 148T488 150L514 120L515 97L499 81Q482 79 469 72Q447 63 432 71Q420 74 412 75T398 74Q395 74 384 74T358 73T331 73T310 72Q301 70 299 71T296 74T290 78T274 83Q261 85 242 83T201 75T160
62T126 45L116 49Q105 50 104 46Q101 46 100 46T96 45H93Q81 51 79 53Q77 55 78 56L61 58L52 108Z" />
<glyph unicode="[" glyph-name="null" horiz-adv-x="400" d="M391 781Q393 780 392 766T391 730Q385 730 382 729Q370 727 357 726Q325 723 316 723V647Q307 638 298 600Q289 562 279 548L275 538Q285 516 282 518Q277 519 280 517Q275 506 277 498T280 463Q282
461 281 347Q281 318 281 299T279 262T278 226T277 183Q277 180 273 172T256 161Q251 160 250 153T250 136T259 119T278 107Q276 65 275 37T274 6Q270 -1 275 -13Q276 -16 277 -19T280 -26L376 -45L385 -113H295Q292 -113 289 -113T280 -112Q272 -111 262 -110T238
-107Q223 -106 206 -106T174 -108T149 -113T139 -123H123Q116 -123 109 -124T97 -126Q97 -110 103 -105Q105 -104 106 -97T109 -80T110 -61T111 -45Q111 -32 111 -27T108 -10Q107 -4 107 48T111 200Q115 399 106 399Q107 407 107 414T108 429V444Q113 449 114 451T115
452Q113 452 124 487V523Q136 521 122 562Q113 604 127 602Q127 605 129 613Q131 618 132 626T137 646Q146 691 146 730Q150 730 153 740T160 760Q167 781 174 781Q175 781 184 781T205 781T230 783T251 787Q280 791 306 796L391 781Z" />
<glyph unicode="\" glyph-name="null" horiz-adv-x="857" d="M855 458Q854 451 854 445T853 434Q852 424 852 415T855 402Q847 403 833 404T809 405Q806 404 805 400T801 396Q802 396 788 394T744 390L739 376L699 285L636 153L607 96V75L573 46H545L521 79L511
112Q510 114 510 117T509 124Q508 130 507 139T504 162Q500 186 497 196T490 198Q473 156 456 128T433 84L427 66L409 19L320 18L309 12L278 32Q276 42 272 55T264 85Q263 89 257 95L247 104Q235 116 240 126Q243 133 240 140T233 153T224 165T222 175Q233 193
234 205T231 226Q229 233 226 235T219 237T212 238T208 243Q203 253 203 263T202 274Q198 276 193 276T178 284L168 328Q164 348 156 372Q102 371 70 371T37 371Q44 378 42 382T39 387L34 386Q31 383 28 381T23 375Q21 376 20 376T16 377Q13 377 11 379Q10 380
9 380L11 446Q16 447 14 447T16 449H39Q50 449 66 449T104 450H127Q126 452 125 454T123 459Q109 492 103 522T85 564V610Q91 616 101 618Q118 621 125 637L156 639Q160 635 168 635T186 636T203 638T213 636Q229 614 248 601Q247 596 250 583T258 549T272 503T289
451L425 453Q424 461 424 470T423 491V520Q415 534 413 552T401 584Q399 587 399 594T399 609Q399 614 399 618T401 627L432 632Q433 635 438 640Q444 646 454 648Q460 648 472 649T496 650T517 647T528 637Q529 632 544 630Q549 593 556 545T567 451Q577 449 586
448T607 445Q661 437 661 455L683 457L722 570L754 625H796L805 613L812 576L773 466L775 467Q791 469 796 475T804 482Q808 474 825 470T855 458ZM349 245Q380 176 388 173Q400 167 412 182T423 237Q422 276 431 299T446 336Q439 346 438 359T433 378Q404 377
374 377T314 375Q328 330 338 295T349 245ZM571 353Q574 346 576 337T579 322Q579 318 578 309T571 282Q568 283 563 280T552 272T544 259T543 246Q549 235 562 229T587 225Q597 222 603 225T614 243L662 354L661 385Q641 383 619 383T570 381V377Q574 372 572
368T571 353Z" />
<glyph unicode="]" glyph-name="null" horiz-adv-x="422" d="M313 443Q314 438 314 428Q314 421 314 414T315 398Q306 398 312 200Q316 6 313 -10Q312 -21 311 -26T310 -45L282 -115Q277 -112 264 -111T236 -109T205 -109T178 -111Q167 -113 159 -113T145 -114Q141
-115 134 -115H45L53 -45L150 -26Q165 -26 174 -17T184 5T178 28T153 42Q153 84 153 103T152 132Q151 183 151 236T149 347Q149 461 150 462Q150 475 151 483T152 497T153 507T150 517Q152 519 149 518Q146 516 153 537L151 547Q139 560 142 599Q145 618 142 624T134
636V713Q126 713 83 716Q60 717 50 719Q46 720 39 720Q39 740 38 755T39 771L147 786Q152 785 164 784T192 781T223 778T249 775Q270 773 282 772T297 771Q303 771 297 750Q289 730 297 730V662Q297 647 296 626T292 577Q288 522 297 523V486Q307 452 306 452Q305
453 306 451T313 443Z" />
<glyph unicode="^" glyph-name="null" horiz-adv-x="576" d="M539 482Q539 471 540 463T544 445Q524 431 509 422T477 399Q464 388 453 398T432 424T418 458T410 478L401 490Q396 496 389 504T373 523Q364 535 357 540T344 549T329 559T308 578Q280 536 268 513T248
475Q241 463 237 457T229 449T222 446T214 446Q209 439 200 429T180 403Q169 387 160 374T146 350L50 360Q41 361 41 372T47 396T61 420T76 435Q89 446 98 464T125 509Q142 534 156 554T181 588Q182 592 185 596Q187 600 190 605T199 619Q204 630 210 639T221 658Q227
669 234 673T249 679T267 679T291 678Q305 679 320 681T352 686Q373 661 387 645T411 618T427 600T440 588Q447 581 458 568T485 536Q500 518 513 505T539 482Z" />
<glyph unicode="_" glyph-name="null" horiz-adv-x="638" d="M637 72Q636 61 636 52T635 33Q634 18 634 4T637 -14Q629 -13 615 -12T591 -11Q588 -12 587 -16T583 -20Q585 -20 517 -26T313 -35Q178 -39 112 -45T44 -51Q51 -44 49 -40T46 -35L41 -36Q38 -39 35
-41T30 -47Q28 -46 27 -46T23 -45Q20 -45 18 -43Q17 -42 16 -42L18 54Q23 55 21 55T23 57Q24 57 46 57T111 58L297 68Q317 68 339 66T389 59Q443 51 443 69L528 79Q532 80 542 80T557 81Q573 83 578 89T586 96Q590 88 607 84T637 72Z" />
<glyph unicode="`" glyph-name="null" horiz-adv-x="290" d="M238 612L258 552L227 532Q220 530 212 530T195 532T182 536T175 539Q174 541 168 549T160 566Q160 569 156 572T146 579T137 585T131 591Q130 596 124 602T118 611Q112 608 84 645Q55 682 45 690Q51
702 58 708T57 724Q62 730 76 743T116 758Q142 758 158 755T181 761H183Q188 761 193 748T212 709Q216 701 218 696T223 686L227 678L222 656L238 612Z" />
<glyph unicode="a" glyph-name="null" horiz-adv-x="560" d="M548 77L408 60L379 107Q379 120 359 106Q354 103 349 96T339 82Q336 78 333 74T327 65Q296 42 264 35T208 44Q191 46 185 52Q182 54 177 59L113 63L86 76L61 139L66 160L44 248L86 318L120 349Q139
359 164 365T214 373T262 375T300 368Q300 352 310 347T349 336Q359 353 359 377T350 429L334 480Q326 483 310 490T282 503L239 496L195 487L185 503L196 529L203 545L217 548L263 556L304 542L349 549L436 523L473 467L486 308L483 258L505 141L518 135H549L562
100L548 77ZM181 240Q176 214 181 196T200 166L215 135Q233 129 249 126T282 125T319 136T365 162L367 213L349 302Q335 307 325 307T304 305Q292 302 276 300T244 296T214 290T194 280L181 240Z" />
<glyph unicode="b" glyph-name="null" horiz-adv-x="620" d="M321 673L297 631Q279 617 280 602T292 570Q290 555 290 546T289 530T291 514T296 492L286 451L284 403L298 395L318 399Q325 404 331 411T341 426T348 438T352 443Q353 443 358 443T371 445T387 449T402
454Q405 454 425 452T472 438Q479 436 486 433T501 425L529 411Q542 405 551 400T563 395L580 339Q576 336 574 330T570 318T569 307T573 301Q575 291 576 287T579 281T584 277T595 269L583 176L529 86Q522 80 507 72T473 55T431 42T387 36Q372 30 368 28T361 25T348
29T313 38Q307 44 303 47T295 53T288 61T282 77Q272 87 256 95T229 101Q215 81 201 69T170 58Q159 64 147 65T124 66T108 65T101 71Q102 75 107 81Q109 85 113 91T123 107L121 124L139 246Q135 257 136 282T139 352T144 461T146 618Q147 633 150 647T157 673T161
696T159 716Q158 725 162 730T177 734L278 730L302 722L321 673ZM295 109Q307 103 314 101T326 98T337 100T348 105L380 115L421 155Q438 160 447 171T458 203Q462 220 467 234T474 263T475 291T465 323L452 356L399 382Q385 385 369 386T339 384T315 374T304 352L285
332Q280 291 279 266Q277 240 275 216T270 185Q266 171 270 160T270 145L295 109Z" />
<glyph unicode="c" glyph-name="null" horiz-adv-x="547" d="M477 448V411L471 405L380 424L300 387L278 336Q248 276 234 228T237 145L266 95L371 113L415 128H497L507 93L395 61L237 28L189 59H107L76 93Q64 150 79 208T124 328L236 409L264 457L296 469L318
487L470 468L477 448Z" />
<glyph unicode="d" glyph-name="null" horiz-adv-x="564" d="M437 716L528 710Q547 710 543 689Q535 673 531 648T525 592Q513 503 508 437T499 324T494 251T486 214L494 130L490 114Q493 106 496 99T502 86Q506 78 507 75Q507 70 500 64T481 52T457 41T433 31Q424
32 420 34T412 40T407 51T398 69Q388 73 371 72T343 60Q339 49 336 45T329 39T320 34T308 26Q282 24 266 24T237 26T213 33T188 46Q167 49 153 55T129 68T112 84T99 100L56 196L63 279Q71 284 75 286T83 290T88 295T95 308Q98 309 99 314T101 325T98 337T92 346L126
398Q129 398 137 403T156 416T180 431T209 441Q237 449 252 449T270 451Q276 447 284 445T299 442T312 440T319 439Q320 439 322 433T327 418T335 400T347 385L365 379L381 385L385 434L380 474Q385 487 386 496T388 516T386 536T385 561Q399 577 401 592T387 623L386
666L413 712L437 716ZM334 94L363 127Q360 131 365 142T368 167Q367 174 367 198T369 248Q370 274 371 294T352 336L290 362L232 346L205 316Q195 300 190 287T182 261T181 233T185 202Q183 182 191 170T215 150L251 111L281 97Q288 94 292 92T301 89T313 89T334
94Z" />
<glyph unicode="e" glyph-name="null" horiz-adv-x="507" d="M469 260Q447 263 430 252Q424 249 418 247T406 242Q403 241 400 240T395 238L256 196Q198 209 215 177Q218 170 223 156T231 136Q244 131 258 121T284 108L302 110Q309 110 321 111T346 114T369 121T384
131Q387 136 393 138T405 143Q409 144 412 144T421 146L432 107L420 84Q419 82 414 80T401 73T388 66T378 59Q376 57 368 57T349 57T327 56T310 52Q296 45 289 43T276 40Q271 38 269 41Q267 42 262 42Q259 42 254 42T244 43Q231 44 223 44T213 45L117 92Q114 122
89 122Q84 122 77 130T65 149Q61 154 58 160T52 175L43 289L52 356Q53 360 58 366Q64 376 73 396Q77 405 89 413T114 427T140 439T159 449Q171 447 194 475Q200 482 209 486T227 494Q232 496 238 497T249 499L366 484Q376 482 387 478Q395 474 403 468T416 454Q423
437 436 427T457 412L494 346L486 281L469 260ZM321 294L329 300Q332 302 335 304T340 308Q347 310 356 316T363 331Q363 348 345 369T298 399Q284 404 271 404T247 403T226 399T210 397Q187 402 184 376Q169 353 169 326T175 273Q175 259 180 250T194 239T210
242T225 263L321 294Z" />
<glyph unicode="f" glyph-name="null" horiz-adv-x="499" d="M462 414Q453 414 437 414T403 414T366 415T335 415L339 374Q339 371 336 366T329 355T321 343T316 334Q314 330 317 316T316 291Q318 286 318 278T316 262T313 247T311 237Q311 234 311 233T312 229T314
223T318 208Q319 204 319 195T316 162Q315 152 314 150T312 145T311 139T310 120L297 73L300 62L283 2Q269 0 256 -1T230 -5Q209 -8 190 -10T162 -12Q154 -12 155 6T161 46Q166 74 176 104Q175 108 175 109T176 114T178 124T181 147Q184 180 185 195T187 219Q187
222 187 229T184 240L188 326Q198 332 195 339T195 350Q198 360 200 371T207 412L186 416Q180 418 174 417Q161 416 133 400L99 425Q90 433 94 445T110 469L182 479L210 481Q217 473 222 473T230 475T236 484T239 495Q239 497 239 498T240 501V503Q240 504 239
512T230 525Q227 527 220 533T213 540Q216 548 216 558T217 579L231 606Q233 609 237 615T249 629L265 644L327 679L439 676L491 636L490 620L466 598L454 599L432 626Q419 635 406 635T382 630T360 613T342 588V584Q342 575 343 572Q344 557 346 555Q346 543 341
528T336 483H417Q431 477 475 479Q483 479 488 479T499 480L507 460L492 430L462 414Z" />
<glyph unicode="g" glyph-name="null" horiz-adv-x="585" d="M459 227Q449 220 431 220Q417 220 408 220T392 221L364 203Q361 202 353 200Q348 198 341 196T323 190Q303 185 287 177T256 160Q249 152 239 151T230 145Q225 131 222 120T219 97Q219 83 219 72T217
55L331 98Q342 96 348 96T359 96Q364 95 370 98T387 107L410 106L473 87L483 73Q485 64 491 48T501 15Q503 7 505 -3T512 -28Q519 -56 524 -59L515 -85L524 -110L519 -129L465 -170Q461 -169 458 -168T452 -166Q447 -164 442 -163T434 -162L356 -198Q352 -197 348
-197T338 -194Q329 -192 315 -190T281 -183Q262 -179 238 -175T191 -168T150 -164T124 -164L79 -155L70 -147L54 -82L59 -62Q83 -50 100 -29T119 25Q120 42 120 53T120 71T120 82T119 91L127 136L142 149L147 200Q144 204 139 212T126 231T113 250T101 267L104
319L150 414L176 452L274 497L381 454L406 466Q409 466 412 467Q415 468 420 468T433 471Q448 473 459 482T480 506Q488 496 495 488T508 473Q512 469 515 466T521 459V407L511 397L441 382L450 350L453 304L470 260L459 227ZM224 234L324 258Q331 265 334 279T324
308L298 354L268 414H232L230 378Q204 383 196 354Q191 339 188 330T184 313L224 234ZM203 -108L304 -122Q360 -127 377 -122Q378 -117 378 -112T378 -101Q378 -91 369 -78T360 -51Q360 -46 363 -46T364 -40Q363 -36 363 -26T361 -5T359 16T354 29Q348 27 335 22T306
12T276 3T256 -3Q247 -21 233 -25T201 -38Q204 -46 196 -54Q189 -59 159 -72Q128 -86 124 -99L203 -108Z" />
<glyph unicode="h" glyph-name="null" horiz-adv-x="558" d="M175 7Q168 7 151 6T125 4L103 2L86 14Q85 29 88 49T92 80Q104 80 97 104Q89 128 91 142Q92 158 96 169T97 186Q95 192 92 199T87 217L99 282Q103 297 104 315T105 351T108 388T116 424L117 450Q118
454 122 458T129 465T135 472T135 481Q137 492 129 500T110 509Q114 516 116 533T120 573T122 619T123 663L144 674Q161 673 176 669T215 659Q227 657 236 656T252 652L266 633Q266 632 266 628T265 620T264 613T262 609Q256 610 257 591V491Q251 485 247 476T240
454T235 430T230 406Q248 390 261 396T280 415L339 411H377L394 405Q418 397 437 388T473 374L491 330L490 318Q489 317 495 294T499 222Q497 174 496 132T495 74Q495 73 497 66T505 51L498 40L479 31Q465 30 449 26T418 22Q412 22 408 26T390 30L376 42Q378 55
377 63T374 78T370 90T368 100Q369 107 369 113T371 128Q373 141 375 157T382 192Q386 215 385 233T385 269L350 340Q346 341 342 342T333 345Q317 349 306 348T285 345Q285 342 275 350T257 367Q240 381 233 373T220 350Q221 339 223 335T229 329Q233 328 236
329Q231 325 228 315T224 292T222 266T225 241Q227 229 223 204T220 140Q220 125 219 109T217 77T215 49T214 29V26Q195 10 175 7Z" />
<glyph unicode="i" glyph-name="null" horiz-adv-x="352" d="M140 646Q142 654 142 661T144 677Q144 684 144 689T145 698L150 709Q153 710 158 710T170 711Q191 712 197 716Q197 717 202 720Q205 723 207 724Q208 724 214 723T230 719Q247 715 254 715Q263 715
264 716T270 716L279 699L288 648L267 613Q266 612 266 611T263 609Q258 606 251 600L248 597L218 594Q212 596 204 598T185 605Q174 609 166 612T152 618L147 623L140 646ZM264 474L260 438L264 423L258 407L261 384L256 365L259 359L255 314L251 219Q251 212
249 202T246 180T246 157T252 137Q251 122 249 102T242 56Q234 45 226 37T194 27Q181 26 169 25T145 22Q139 21 133 20T120 17L95 49Q96 54 98 76T103 130T105 196T103 261L109 280L118 324L121 359L127 371L128 380L134 407L139 462L229 497L264 474Z" />
<glyph unicode="j" glyph-name="null" horiz-adv-x="370" d="M269 152Q268 149 266 126T261 60Q259 37 258 21T256 -7Q255 -14 255 -19T255 -29L186 -106L123 -136L49 -161L27 -155L17 -108Q25 -105 31 -104T43 -100T55 -95T68 -84L101 -61L130 0Q132 11 137 31T136
81Q134 95 134 113T135 147Q136 156 136 165T138 184Q138 197 137 202T133 212T130 222T128 240Q128 245 128 249T129 257Q130 264 131 270T138 280Q134 291 133 313T130 370Q129 406 131 424T134 457Q142 461 145 463Q152 467 164 469L257 451L277 422L269 152ZM267
702Q262 699 266 697T269 694L287 624L271 590L232 557Q229 551 214 552T175 554Q163 554 154 559T139 571T130 584T125 594Q117 610 117 624T134 650Q142 655 143 662T142 677Q140 686 136 695Q139 696 144 697T156 698T167 700T174 703L180 707Q182 708 183 709T187
712Q188 712 194 711T215 706Q229 704 235 703T243 702Q249 702 251 702T255 703H258Q263 703 267 702Z" />
<glyph unicode="k" glyph-name="null" horiz-adv-x="589" d="M318 251Q306 249 297 243T282 231T270 219T261 212Q256 215 248 215T233 213T222 201T223 177L227 106L223 69V50L204 23L171 15H105Q94 13 88 18T81 47V49L97 109L100 177L107 305L119 391Q118 396
117 410T114 445Q113 467 113 481T112 503Q112 501 119 508T131 527T135 553T118 579L128 662Q135 666 129 686L149 706L162 708Q170 706 178 706T198 703Q207 701 214 701T228 697L248 686V667Q250 662 252 652T255 626Q255 619 254 610T253 593T251 579T250 572Q250
571 250 567T248 559T246 552T244 550Q243 550 242 544T239 530T236 512T236 498Q237 493 238 483T240 454Q240 445 240 438T241 426Q241 420 242 417L236 344L218 329Q204 301 205 290T217 272Q235 275 242 277T253 284T260 297T276 320Q276 318 294 329Q310 339
309 353Q322 359 328 363T342 371Q361 385 367 398T378 410Q381 410 382 409T388 406Q393 409 404 416T432 438Q442 446 450 453T467 467L492 464L509 428L498 421Q492 415 486 406T475 389T463 374T451 366Q426 346 396 329T336 292Q331 289 327 286T319 279Q317
277 317 273T319 264T320 255T318 251ZM552 33L482 -2L461 3L437 35Q433 40 430 45T422 58Q411 76 401 88T386 109Q385 111 382 116T371 125L367 178Q371 180 361 188T339 210Q322 238 330 249Q344 247 361 246T400 247Q407 248 412 248T422 248L436 234Q436 233
436 233T435 232Q437 229 441 222T454 202Q466 192 471 184T478 169T481 155T487 139Q490 136 496 130T511 114Q520 105 524 100T529 94Q531 92 530 90T529 88L554 51L552 33Z" />
<glyph unicode="l" glyph-name="null" horiz-adv-x="357" d="M243 177L247 106L243 69V50L224 23L191 15L105 -1Q94 -3 88 2T81 31V33L97 109L100 177V215L112 301Q111 306 110 320T107 355Q106 366 106 375T105 391V412Q105 411 112 418T124 437T128 463T111
489L128 662Q135 666 129 686L149 706L162 708Q166 707 175 707T194 706T213 705T228 703Q237 701 251 701T271 697L291 686V667Q294 661 291 651T288 626Q288 619 287 610T286 593T284 579T283 572Q283 570 282 567L281 559Q281 555 280 552T277 550Q276 550 273
544T266 530T260 512T259 498Q260 493 261 483T263 454Q263 445 263 438T264 426Q264 420 265 417L258 358L260 329Q246 301 247 290T259 272L243 177Z" />
<glyph unicode="m" glyph-name="null" horiz-adv-x="829" d="M748 58L692 41L619 32L612 49L627 107L645 160L650 349L626 394H597L551 360H540Q529 360 527 348T526 319Q517 316 513 289L509 261L508 200L490 120L497 80L488 44L479 35L368 27L345 48L352 87L366
190Q370 208 373 231T379 277T381 322T381 358Q379 369 381 376T382 388L363 406L301 396L281 413Q257 427 256 396Q250 387 246 382T240 365Q235 363 232 360Q228 356 224 348T218 325Q214 296 214 276T219 248V230L202 190L197 119L188 50L180 41L59 31L39 49L45
87L51 139L55 215Q55 234 60 251T69 289L79 368Q86 375 94 393T103 428Q103 433 102 435T98 442L113 462Q115 462 122 462T138 461T158 462T177 465Q213 470 222 480L260 482L256 444Q265 435 275 434T297 436T318 450T335 473L392 472Q403 473 413 473T434 474Q450
474 464 472T480 464Q484 446 497 450Q499 451 504 444T522 434Q528 432 530 428T534 418T536 410T540 406L598 452L691 467L776 399L778 385Q778 379 778 374T774 365V275L775 179L757 68L748 58Z" />
<glyph unicode="n" glyph-name="null" horiz-adv-x="578" d="M193 21Q190 21 181 21T160 20T139 19T125 18L103 16L86 28Q85 43 88 63T92 94Q104 94 97 118Q89 142 91 156Q92 172 96 188T97 210Q95 216 92 223T87 241L99 306Q99 360 100 389T103 432T107 449T111
456T113 466T113 494L134 505Q151 504 175 500T223 490Q235 488 244 487T260 483L274 464Q255 451 249 447T248 430Q266 414 279 420T298 439L363 455H401L418 449Q442 441 466 432T507 418L525 374L524 362Q526 333 527 307T527 242Q526 218 525 194T524 147T523
109T523 84Q523 83 525 76T533 61L526 50L507 41Q493 40 472 36T436 32Q430 32 426 36T408 40L394 52Q396 65 395 73T392 88T388 100T386 110Q387 125 389 143Q391 157 393 175T400 212Q402 223 402 240T402 275T402 309T403 333L374 384Q370 385 366 386T357 389Q349
391 342 388T327 381T314 373T303 369Q303 366 293 374T275 391Q258 405 251 397T238 374Q239 363 241 359T247 353Q251 352 254 353Q249 349 246 339T242 316T240 290T243 265Q245 253 241 223T238 154Q238 139 237 123T235 91T233 63T232 43V40Q213 24 193 21Z"
/>
<glyph unicode="o" glyph-name="null" horiz-adv-x="578" d="M525 375Q528 358 528 346T528 322T528 300T536 277Q534 273 527 262T516 238Q514 227 513 221T511 213Q514 211 516 205Q517 200 514 193T502 172Q484 148 482 132T474 106Q472 104 462 100T437 91T409
78T387 64Q370 61 357 56T325 49Q307 45 288 40T267 34Q220 34 211 31Q203 28 192 28L101 61L59 122Q59 146 58 162T54 191T51 215T51 240Q54 243 60 254T72 281T85 312T95 339Q103 362 107 379T113 411Q121 416 126 422T136 432Q177 456 207 471T263 491L293 493Q298
492 302 491T310 489Q316 487 321 487T327 486L347 455Q347 446 343 441T351 433Q364 430 365 429V428Q381 428 398 435T432 443Q436 443 446 440T467 431T487 422T501 415Q499 400 502 394T510 386T519 382T525 375ZM346 125Q361 135 375 189Q383 218 388 232T394
260Q394 282 379 312Q371 328 367 339T361 361Q353 365 353 373T344 391Q334 399 332 397T328 395H319Q311 395 298 392T276 378Q264 365 256 358T246 348Q236 329 228 316T215 294L206 273Q200 258 201 233Q203 229 205 216T193 187Q190 184 187 176T183 156T185
134T200 115Q214 105 229 96T248 86H259Q265 86 270 83L346 125Z" />
<glyph unicode="p" glyph-name="null" horiz-adv-x="574" d="M82 -128V-74L92 87V182L109 200Q112 217 109 256Q107 297 92 297Q92 318 83 331T74 356Q81 363 85 372Q90 380 93 392T97 422Q97 424 91 420Q89 419 86 416L78 436Q83 449 88 467T96 501L134 511Q152
506 176 499Q206 491 225 487T255 484V441L325 477L353 474Q368 462 384 456T410 448Q419 447 427 446T442 444Q452 444 467 441T493 436L505 418Q511 403 515 391T524 369T532 350T544 332Q543 326 542 317T543 293Q544 270 558 266L555 246Q541 226 533 210T519
181Q516 174 514 168T509 155Q497 151 472 143T417 122Q359 100 349 94Q341 88 334 78L325 66Q322 65 316 65Q311 64 306 64T293 63Q277 62 268 61T247 61L231 18V-12L232 -53L237 -63Q239 -68 241 -74T247 -85L227 -123Q224 -124 216 -126Q211 -127 204 -127T187
-123Q177 -121 169 -123T155 -130T143 -139T133 -143Q128 -143 122 -144T108 -146L82 -128ZM392 197L410 255Q410 287 411 307T410 351Q406 355 401 361T390 374T380 384T374 388Q372 388 366 390T351 394T335 397T323 398Q322 398 320 395T314 388T304 385T290
394Q279 404 273 402T263 392T256 371T249 348Q245 343 243 343T241 332Q241 331 246 323T256 304L241 291L237 144L261 136H320L392 197Z" />
<glyph unicode="q" glyph-name="null" horiz-adv-x="592" d="M478 -122Q473 -121 469 -121T460 -120Q456 -120 447 -120T427 -122L405 -125Q400 -126 395 -127T386 -129L357 -139L338 -113Q340 -108 342 -103T346 -93L351 -83L363 -26L368 21L357 62Q332 61 299
62Q284 62 276 55Q271 50 268 48L257 59Q252 64 248 68T241 74Q238 75 229 75T208 76T181 79T151 86Q136 91 127 98T112 114T102 128T94 136Q88 151 79 169Q71 184 60 203T32 244Q43 250 49 259T59 279T62 299T61 314Q67 323 71 332T79 353T89 378T103 410Q106
411 110 411T120 414L142 421Q153 425 162 427T174 428L188 430Q192 431 195 431T204 432Q220 433 256 465L361 435V485Q361 498 366 502T397 512Q404 515 421 513T456 506T489 498T509 495L529 480Q530 475 530 471T531 461Q532 454 532 448T533 437Q533 429 534
425Q532 417 531 413Q529 408 529 404T528 398Q528 381 529 373T533 361Q534 358 538 356Q538 346 530 334T521 301Q517 301 513 296T506 282T500 263T497 243Q496 206 497 191L512 174V85L507 -56V-97L478 -122ZM359 138L371 315L360 328Q364 338 367 345T371
354Q371 364 369 363T364 369Q357 372 347 374T314 382Q303 384 292 383T270 379T252 374T243 372Q238 375 233 380T224 386Q223 386 219 382L210 373Q205 368 201 363T193 353Q191 341 192 326T196 294T200 260T203 227L217 192L293 131H337L359 138Z" />
<glyph unicode="r" glyph-name="null" horiz-adv-x="470" d="M438 470V424H412L374 394Q325 387 294 375T265 340Q263 335 263 329T270 322L250 222L241 211V100L235 44L215 24L101 32L76 66L83 84L79 139L91 240L101 314Q101 317 102 319Q102 321 102 324T103
329Q108 333 109 347T110 365Q110 372 110 378T105 404Q104 410 99 418T87 434L100 465H119L222 484L247 472Q244 455 246 444T254 426T267 419T279 420L297 430Q302 432 301 441T301 464L425 486L438 470Z" />
<glyph unicode="s" glyph-name="null" horiz-adv-x="525" d="M59 411L102 480Q106 480 110 480T119 482Q127 483 140 485T170 489Q238 497 220 522L363 543H400L407 535L411 502L394 489L344 488L279 456L207 433L195 406L218 350L246 346L259 317L283 319L297
302Q306 305 315 306T331 306Q336 305 342 305T356 302Q366 299 370 296T377 290T384 285T398 283Q401 277 409 271T428 259T449 247T465 235Q467 233 467 232T470 229L476 181L454 121L448 79L399 54L318 22L269 29Q243 33 223 29T186 25H76L64 55L72 84L217 99L265
105L325 169L316 198L272 206L195 227L182 220L140 239L113 257L82 325L59 370V411Z" />
<glyph unicode="t" glyph-name="null" horiz-adv-x="474" d="M42 387Q38 398 36 416T32 448L51 484Q69 487 76 486T88 483Q94 484 105 485T141 491Q143 508 148 529T155 576L141 590L140 605L151 631H271L316 629Q323 621 322 611T318 591T313 577T313 573V511Q307
506 304 500T299 485L301 483L359 485Q362 484 365 483T372 481Q384 478 403 478L412 468L401 420Q395 420 385 419T365 416T346 413T334 412L292 400Q288 389 287 382T285 368T285 354T286 335L279 208Q276 191 277 177T282 153Q284 148 286 143T290 133L299 107L303
102L400 132L437 141L459 121L435 89L412 77L392 73L277 22Q272 22 269 23Q264 23 258 23T243 25Q207 28 189 23Q189 51 167 61Q156 68 148 73T132 81Q132 98 132 104T130 120Q128 125 129 142T131 187Q133 215 129 232T117 250Q118 263 118 276T120 299Q121 304
121 310T121 321Q123 325 124 327T126 331Q127 333 135 336T151 357Q174 373 171 386T136 404Q129 403 125 401T120 389L60 376L42 387Z" />
<glyph unicode="u" glyph-name="null" horiz-adv-x="587" d="M540 450L521 310L524 253L519 193L504 135L446 49Q408 20 364 10T269 5L222 26H195Q179 26 139 57Q122 70 110 80Q107 82 105 84T100 88Q100 96 98 108T92 138Q89 156 87 166T83 182Q83 185 84 189T85
198T81 206T70 209L73 265Q77 276 77 280T76 287T75 295T80 312L85 349Q94 346 99 354T106 373T105 394T93 404Q89 412 88 421T89 431Q89 437 88 445T87 475L116 499Q128 498 146 498T183 497T221 497T250 494L258 481Q252 461 252 452Q251 446 252 442L250 396Q247
390 245 379T241 354T238 326T237 302Q232 285 227 267T226 232Q228 227 228 220T235 192Q233 186 232 177T231 159T235 140T246 124L284 94L344 89Q354 76 362 76T375 97L410 118L438 192L439 238V287Q459 301 461 317T440 355L437 470L457 488L518 483L540 450Z"
/>
<glyph unicode="v" glyph-name="null" horiz-adv-x="587" d="M258 43Q254 54 238 73T213 116Q196 162 189 181T175 203Q170 205 162 214T144 227Q133 262 118 301T78 375Q67 390 63 400T56 419T50 432T40 443V480Q50 486 66 486Q73 486 75 492T83 502Q88 504 100
508T115 517L150 510Q158 505 162 506T171 503Q180 495 190 489T213 478Q210 476 219 450T245 385T280 304T317 225T347 169T362 155Q366 154 372 171T386 211Q393 236 402 253T415 278Q428 286 432 294T445 313Q451 320 453 328T457 338Q465 354 478 375T493 423Q495
441 500 454T508 476L538 479L571 456Q571 444 567 435T564 417Q564 413 560 407T552 393T544 380T540 370Q539 363 532 354T524 331Q524 302 515 290Q504 274 487 247T451 182Q432 145 421 119T408 86L400 72L378 37Q361 27 342 25T302 35L280 27L258 43Z" />
<glyph unicode="w" glyph-name="null" horiz-adv-x="780" d="M32 450L33 451L39 454Q48 458 56 458Q76 461 84 476L168 475Q175 471 186 469T199 464Q204 462 206 459T219 451Q219 431 225 399T248 335Q243 340 246 333T256 311T272 280T291 247T306 222T312 212Q331
175 339 123Q345 121 368 179Q379 206 387 225T400 255Q393 268 387 282T373 296V305Q373 309 373 311T374 316Q374 321 367 341Q364 354 368 368T371 390Q364 401 359 413T340 436Q333 442 336 458Q337 468 339 471Q340 473 340 475L371 489Q375 488 379 488T387
490Q394 492 400 494T411 505Q422 500 433 498T446 493Q447 489 465 487Q470 467 480 441T497 391Q505 369 504 343T501 300Q508 296 514 293T523 280Q525 275 528 267T531 254Q531 251 528 243T522 225Q508 227 522 200Q532 171 543 157L567 179L612 279L639 353L670
413L704 454H743L760 435L759 412L736 370L686 281Q665 274 658 258T658 228L612 139L605 88V70L567 50H543L502 76L488 103Q484 106 481 109T474 115Q469 120 464 126T460 140Q462 154 461 158T457 157Q447 142 434 131T407 111T384 96T371 83L364 69L341 35L262
33L246 26L203 51Q200 62 191 77T177 112Q166 162 163 181T153 203Q149 205 147 210T136 223Q136 232 136 238T135 249T127 257T109 261Q102 274 92 297T71 345T50 388T34 413Q32 414 31 415T28 417L32 450Z" />
<glyph unicode="x" glyph-name="null" horiz-adv-x="592" d="M573 78Q572 76 568 72T560 64T551 56T546 53Q543 54 539 54V55L518 40Q509 35 502 31T481 18L467 9L443 14L419 46Q406 58 399 65T389 74Q387 76 386 79T382 84Q380 86 378 89T371 95L356 111Q346
119 335 132T313 156T292 173T272 173Q255 156 245 139T226 112Q217 99 212 94T204 87H199Q194 87 191 88Q186 82 177 72T154 44Q146 33 141 27T132 16Q130 10 130 13L129 12L111 14L67 20L56 48Q65 62 67 69Q73 90 89 94Q99 102 112 115T143 146Q160 165 171 182T191
209Q193 209 196 210Q199 210 203 210T213 212Q225 215 226 225T219 236L187 273Q182 284 174 293T153 309Q126 340 110 359T83 392T61 420T36 454L45 481L178 499Q181 496 180 493T175 488T169 485T164 483Q163 483 165 482L172 479Q183 477 189 470Q191 469 200
462T214 448Q215 446 217 445T223 442T228 435T233 420Q236 412 254 390Q273 366 317 357Q304 343 308 339T320 329Q330 340 340 353T358 378T372 401T378 418Q378 431 386 437T393 449Q393 450 399 457T401 483L480 500Q485 493 488 489T498 482L502 445Q483 415
462 387Q445 363 433 347T412 324Q407 316 398 306T377 275Q390 264 404 250T426 227Q429 213 435 205T448 191T461 183T469 179Q473 176 473 163T479 142Q485 135 496 135T515 129Q537 106 560 99L573 78Z" />
<glyph unicode="y" glyph-name="null" horiz-adv-x="629" d="M550 471L627 456L611 417V414Q612 405 600 354Q599 351 592 345T575 331T556 315T544 298L399 76L369 46Q366 45 364 44T359 42L368 29L321 -42L260 -122L245 -143L127 -137L109 -86L143 -77L167 -52L185
-39V-14Q189 -12 192 -10T200 -4Q206 1 213 8T226 25Q248 64 227 64Q235 70 238 73Q248 83 251 99Q255 130 247 139Q242 140 225 160Q216 170 210 177T200 186Q194 203 183 224T158 266T130 309T104 348Q68 402 41 421L34 448Q46 461 64 463Q84 465 92 477L149
495Q167 485 182 472Q203 453 225 446Q225 433 233 423T251 405T270 389T284 375Q284 374 285 369T287 357T288 347T284 342Q279 342 285 337T308 324Q308 321 312 313T324 295T338 275T350 255Q361 234 365 216T372 195Q374 195 380 197T393 203T405 212T410 224Q410
230 406 234L399 243Q396 248 394 252T394 260Q405 269 410 275T423 293Q425 298 431 304T445 317T459 327T465 333Q473 349 478 364T491 409Q492 414 496 419T506 428T516 436T522 443Q523 445 523 445T524 448L550 471Z" />
<glyph unicode="z" glyph-name="null" horiz-adv-x="521" d="M59 447H56Q52 447 52 453L59 447ZM40 87Q42 92 48 100L57 112Q69 127 76 137T87 152Q87 154 88 157T89 167L173 309Q186 309 186 314T191 322Q194 325 197 332T205 349T215 367T230 384Q267 413 271
420Q272 424 263 434L253 442Q239 441 231 435T209 429Q195 436 181 438T151 440T121 440T92 441Q80 443 72 444T59 447L52 453V464Q52 468 52 477T50 489L64 508Q82 509 103 509T151 506Q169 505 178 506T193 509T203 513T215 515Q213 509 220 505T239 499T262
497T284 501Q317 513 333 511Q340 508 351 506T376 503T403 499T427 493V475Q431 472 434 470T445 462Q441 455 438 447T433 432Q431 427 431 423T429 415L387 349L343 275Q341 273 339 265T329 253Q327 252 323 248T314 240T305 232T298 228L295 227Q288 214 280
203T257 172Q242 164 226 163T209 161Q196 159 190 152T182 138T184 125T195 121Q207 123 223 124T262 129Q271 131 278 131T288 131Q292 130 301 130T325 130Q360 132 362 130Q363 129 365 128T370 123Q377 121 393 123T434 130Q445 132 453 133T467 137L485 117L487
100L469 57Q450 53 433 48T404 49Q378 53 368 52Q362 51 352 51T325 51Q288 47 242 51Q219 53 186 48T126 28L117 31Q105 33 99 29Q98 28 97 28T95 27L90 29Q78 36 77 36T77 38H52L40 87Z" />
<glyph unicode="{" glyph-name="null" horiz-adv-x="441" d="M405 778L436 743L428 718L385 693Q368 692 360 688T348 676T345 660T343 640V600L352 495L333 419L328 391L301 351L333 307L352 145L342 66L364 -51L409 -68L372 -123L234 -44L194 36L207 122V152L194
167L181 272L156 318L121 336V399L165 413L194 449L210 503V542L195 565L207 646Q236 688 266 713T330 751L405 778Z" />
<glyph unicode="|" glyph-name="null" horiz-adv-x="306" d="M218 391Q198 385 208 351Q213 334 218 324L221 315L186 221L180 183L196 48L208 -7L209 -49H122L117 -28L109 11V206Q109 208 110 209Q111 211 111 213T114 219Q120 233 117 233Q121 268 121 318T119
438Q113 573 117 588Q118 588 119 589L125 593Q118 612 117 631T109 682Q98 694 97 704T95 722Q97 724 153 713Q179 708 193 706T209 702L208 546V512Q208 507 208 501T209 486Q212 426 218 391Z" />
<glyph unicode="}" glyph-name="null" horiz-adv-x="400" d="M24 -140L-7 -105L1 -80L44 -55Q61 -54 69 -50T81 -38T84 -22T86 -2V38L77 143L96 219L101 247L128 287L96 331L77 463L87 542L82 657L20 716L57 771L195 692L235 612L222 486V456L235 441L248 366L273
320L308 302V239L264 225L235 189L219 135V96L234 73L222 -8Q193 -50 163 -75T99 -113L24 -140Z" />
<glyph unicode="~" glyph-name="null" horiz-adv-x="479" d="M422 373L445 356L431 297L359 224Q341 223 328 222T304 220T282 223T255 234Q230 253 207 256T162 261L116 235L80 216L35 242L101 351L201 383Q229 380 245 373T271 355T284 334T292 311H341L422 373Z" />
</font>
</defs>
</svg>
